<svg xmlns="http://www.w3.org/2000/svg" xmlns:xlink="http://www.w3.org/1999/xlink" version="1.1" preserveAspectRatio="xMidYMid meet">
  <symbol id="was" version="1.1" x="0px" y="0px" viewBox="0 0 467.1 414.8" xml:space="preserve">
    <g>
      <path d="M263.3,273.8c-6.4-0.5-12.8-0.8-18.8-3.2c-3.4-1.4-6.6-3.1-9.8-4.7c-0.6-0.4-1.3-0.3-1.8,0.1c-3.9,2.7-8.3,4-12.7,5.3
        c-3,0.9-6,1.5-9.1,1.9c-2,0.1-3.9,0.2-5.9,0.1c-1.2,0-2.5,0.3-3.7,0.2c-1.9-0.1-3.7-0.4-5.6-0.6c-1.9-0.2-3.8-0.6-5.6-1
        c-3.7-1.2-7.5-2.6-11.1-4c-2.3-0.9-4.4-1.9-6.5-3.2c-2.3-1.7-4.5-3.6-6.6-5.7c-0.8-0.8,0.3-1.1,0.6-1.4c1.4-1.2,2.9-2.4,4.4-3.5
        c2.8-2.2,5.8-3.9,9.1-5.3c1.9-0.7,3.7-1.7,5.7-2.3c0.9-0.3,2-0.2,2.9-0.5s1.9-0.8,2.9-1c1.6-0.4,3.1-0.6,4.7-0.8
        c0.2,0,0.4,0.3,0.6,0.3c0.5,0.1,0.9,0.1,1.4,0c0.6-0.3,1.2-0.4,1.8-0.5c3.2-0.1,6.3,0,9.5,0.3c3.9,0.5,7.8,1.2,11.6,2.2
        c4.1,1,7.9,2.6,11.5,4.8c0.5,0.2,1.1,0.2,1.6,0c4.9-2.7,10.1-4.8,15.5-6.1c5.5-1.3,11.2-1.7,16.9-1.2c5.2,0.2,10.4,1.2,15.4,2.7
        c4,1.4,7.9,3.3,11.5,5.5c1.7,1,3.3,2.2,4.9,3.4c1,0.8,2,1.6,2.9,2.5c0.1,0.3,0,0.7-0.2,1c-3.2,3.1-6.7,5.8-10.6,8
        c-1.5,0.9-3.1,1.6-4.7,2.1c-5,1.5-10.1,2.9-15.1,4.1C268.4,273.7,265.8,273.6,263.3,273.8z M254.5,263.5c0.2-0.4,0.2-0.7,0.3-0.8
        c0.3-0.6,0.7-1.2,1-1.9c0.1-0.3,0-0.6-0.1-0.8c-0.3-0.1-0.7-0.1-1,0c-0.2,0.2-0.3,0.5-0.3,0.8c-0.1,0.4,0,0.8-0.1,1.2
        c-0.3,0.6-0.7,1.1-1,1.7s-0.6,0.8-1.1,0.3c-0.7-0.6-1.4-0.7-2.2,0.4c0.6,0.2,1.3,0.4,1.9,0.5c0.2,2.2,1,2.5,4.2,1.8
        c-1.3-1.3,0.2-2.3,0.3-3.7C255.7,263.1,255.1,263.3,254.5,263.5z M214.1,259.2c-0.3,1.5-1.8,1.5-2.8,2.3c0.3,0.1,0.7,0.1,1,0.1
        c0.4-0.1,0.7-0.1,1.1,0c0.2,0.3,0.3,0.6,0.3,1c0.1,0.3,0.1,0.7,0.2,1c0.3-0.2,0.6-0.4,0.9-0.7c0.5-0.8,0.7-1.7-0.4-2.3
        c1.1-1,1-1.5-0.1-2.4c-0.5-0.3-0.9-0.8-1.2-1.3c-0.6-1.3-2.2-1.9-3.5-1.3C211.1,256.9,212.6,258,214.1,259.2L214.1,259.2z
         M258.5,256.7c-0.1,0.6-0.2,1.1-0.2,1.7c0,0.3,0.1,0.6,0.4,0.8c0.4,0.1,0.9,0.2,1.3,0.1c0.1-0.8,1.7-1.5,0.2-2.4
        c-0.1-0.1-0.1-0.3-0.1-0.4c0.3-0.9,0.6-1.7,0.9-2.6c0.1-0.4,0.2-0.9,0.1-1.3c-0.2-0.2-0.4-0.3-0.7-0.3c-0.4,0.3-0.7,0.7-0.9,1.1
        C259.2,254.4,258.9,255.6,258.5,256.7z M213.2,251.7c1.1,0.9,0.7,1.3-0.3,1.7c-0.3,0.2-0.6,0.5-0.9,0.8c0.1,0.1,0.2,0.3,0.2,0.4
        c0.6-0.2,1.3-0.2,1.9-0.2c0.6,0.2,1.2,0.5,1.8,0.8c0.1-0.3,0.3-0.5,0.5-0.8c0.5,0.1,0.9,0.2,1.4,0.2c0.3-0.9,0-1.3-0.8-1.2
        c-0.8,0.1-1.6-0.4-1.7-1.2c0,0,0,0,0,0C214.8,250.9,214.6,250.8,213.2,251.7L213.2,251.7z M270.2,249.3c0-0.1,0-0.3-0.1-0.4h-1.5
        c-0.4,0-0.8-0.1-1.2-0.2c-0.5-0.2-1-0.3-1.5-0.2c-0.7,0.5-1.4,1.1-2,1.7c-0.1,0.2-0.1,0.5,0,0.7c0.2,0.2,0.4,0.2,0.7,0.2
        c0.5-0.1,0.9-0.3,1.3-0.4c1.2-0.3,2.4-0.6,3.6-1C269.8,249.7,270,249.5,270.2,249.3L270.2,249.3z M260.4,250.5
        c-0.2-0.5-0.5-0.9-0.9-1.2c-0.4-0.3-2.3,0.8-2.5,1.3c-0.3,0.4-0.6,0.8-1,1.2c-0.5,0.3-0.7,0.9-0.4,1.4c0,0.1,0.1,0.2,0.2,0.2
        c0.3,0.4,0.8,0.5,1.2,0.3c0.1-0.1,0.2-0.2,0.3-0.3c0.7-0.6,1.3-1.2,2-1.8c-0.6-0.2-1.6-0.2-0.9-1.4
        C259.1,250,259.4,251.6,260.4,250.5L260.4,250.5z M195.7,254.1c0.3,0.7-0.9,1.9,0.7,2.2c1.5-2,1.5-2,0.6-3.9
        c-0.3-0.7-0.5-0.7-1.1-0.2c-0.5,0.5-1,0.9-1.6,1.2c-0.4,0.3-0.9,0.5-1.4,0.8C194.1,255.7,194.7,253.6,195.7,254.1L195.7,254.1z
         M241.6,259.7c1.2,0.3,1.4-0.6,1.6-1.2c0.5-1.2-0.9-1.1-1.4-1.5c0.4-0.7,0.7-1.3,1.1-1.9c-1.6-0.1-1.8,2.1-3.4,1.2
        c-0.3,0.4-0.1,1,0.3,1.3c0.1,0.1,0.3,0.1,0.4,0.1C241.1,257.9,241.8,258.8,241.6,259.7C241.6,259.7,241.6,259.7,241.6,259.7
        L241.6,259.7z M276.8,264.2c0,0.1,0.1,0.2,0.1,0.3c-0.4,0.5-0.8,0.9-1.2,1.4c-0.2,0.2-0.3,0.5-0.3,0.8c0.1,0.3,0.4,0.6,0.7,0.8
        c0.5-0.1,1-0.3,1.4-0.6c0.3-0.3,0.6-0.7,0.8-1.1c0.1,0.6,0.2,1.1,0.3,1.7c0.2,0,0.3-0.1,0.5-0.1c-0.1-0.6-0.2-1.1-0.3-1.7
        c0-0.6,0-1.2,0-1.8C278,264,277.4,264.1,276.8,264.2L276.8,264.2z M195.9,260.2c0,0.1,0.1,0.3,0.1,0.4c0.4-0.1,0.8-0.2,1.1-0.4
        c0.2-0.3,0.3-0.6,0.3-0.9c0-0.2-0.2-0.5-0.4-0.6c-0.6,0-1.5-0.2-1.9,0.2c-0.7,0.6-1.7,0.7-2.6,0.3c-0.3,0-0.5,0.1-0.7,0.3
        c0.4,0.5,0.9,0.9,1.5,1.2C194.1,260.7,195,260.3,195.9,260.2L195.9,260.2z M225,260v0.4c1.2,0.6,2.4,1.3,3.5,1.9
        c0-0.1,0.1-0.2,0.1-0.3c0.2,0.3,0.4,0.6,0.7,1.1c0.2-0.3,0.4-0.4,0.3-0.5c-0.2-1-1.5-1.4-1.3-2.6c-0.1-0.2-0.4-0.4-0.6-0.4
        C226.9,259.7,225.9,259.8,225,260L225,260z M208.1,263.1c-1.2,0.4-2,1.6-3.3,0.5c-0.2,0-0.5,0.1-0.7,0.2c-0.1,0.2-0.1,0.4,0,0.6
        c1.1,0.5,1.6,1.7,1.2,2.8c0.2,0.2,0.4,0.3,0.6,0.4c0.1-0.2,0.2-0.4,0.3-0.6c-0.3-1.5-0.1-2,1.3-2.5c0.5,0,0.8-0.4,0.8-0.9
        C208.3,263.4,208.2,263.3,208.1,263.1L208.1,263.1z M224.5,256.3c-0.1-0.2-0.1-0.3-0.2-0.5c-0.4,0.4-0.8,0.9-1.1,1.4
        c-0.3,0.6,0.2,1.1,0.7,0.8c1-0.6,1.6-0.2,2.3,0.5c0.2,0.2,0.5,0.3,0.8,0.2c0.2-0.2,0.4-0.6,0.4-0.9c0-0.8-0.7-0.8-1.2-0.9
        S225.1,256.5,224.5,256.3L224.5,256.3z M197.8,262.1c-1.4,1.3,0,2.1,0.5,2.7c0.2,0.4,1.5,0.3,2.3,0.1c0.4-0.3,0.8-0.7,1.1-1.1
        c0-0.1-0.1-0.3-0.1-0.4C199.8,264.1,198.4,264.1,197.8,262.1z M265.7,254.2c0.3,0.7,0.5,1.3,0.9,2.1c0.3-0.1,0.5-0.3,0.7-0.5
        c0.1-0.2,0.4-0.4,0.6-0.5c0.8,0,1.1-0.3,0.9-1.1c-0.1-0.6-0.6-1-1.2-0.9c-0.1,0-0.2,0-0.3,0.1
        C266.7,253.6,266.2,253.8,265.7,254.2z M237.4,260.5c0.2-0.6,0.3-1.1,0.4-1.7c0-0.8-0.1-1.5-0.2-2.3c-0.2-0.2-0.4-0.2-0.6-0.2
        c-0.4,0.5-1.4,0.8-0.6,1.8c0.2,0.4,0.3,0.8,0.2,1.2C236.1,260.3,236.6,260.4,237.4,260.5z M247.9,253.9c0.7,0.6,1.1,1,1.5,1.4
        V255c0.7,0,1.4,0.1,2.2,0.1c-0.1-0.6-0.2-1.3-0.4-2.1C250.2,253.3,249.1,253.5,247.9,253.9z M208.7,264.5
        c-1.4,1.3-1.8,2.5-1.5,3.2c0.8-0.2,1.5-0.3,2.1-0.5c0.3-0.1,0.5-0.3,0.7-0.6c-0.1-0.2-0.2-0.4-0.4-0.5
        C208.5,266.2,208.4,265.6,208.7,264.5z M199.6,254.8c0.9,1,1.7,1.9,2.4,2.8c0.4-0.4,0.8-0.9,1.2-1.3
        C202.4,254.9,201.1,254.7,199.6,254.8z M224.7,263.4c0.1-0.1,0.1-0.2,0.2-0.3c-0.5-0.7-1.2-1.1-2-1.1c-0.3,0-0.5,0.2-0.6,0.4
        c-0.2,0.8-0.4,1.6-0.6,2.6c0.3,0.1,0.7,0.1,1,0c0.2-0.6,0.3-1.2,0.3-1.8c0.2,0,0.5,0.1,0.8,0.1
        C224.1,263.4,224.4,263.5,224.7,263.4z M187.8,256.6c0.4-1.1,0-2.1-1.2-3c-1.1,0.9-1.2,1.4-0.5,1.9
        C186.7,255.9,187.3,256.2,187.8,256.6z M270.2,259.6c0.4,0.3,0.6,0.4,0.9,0.6c1.2,0.6,1.2,0.6,0.3,1.5c-0.2,0.3-0.3,0.7-0.2,1
        c0.1,0.3,0.3,0.5,0.6,0.5c0.3-0.2,0.5-0.4,0.7-0.7c0.1-0.2,0-0.5,0.1-0.8c0.3-0.8-0.7-2.5-1.6-2.5
        C270.7,259.2,270.4,259.4,270.2,259.6z M269.5,264c0.1-0.1,0.2-0.1,0.3-0.2c0.1-0.7,0.3-1.3,0.4-2c0.1-0.2,0.2-0.5,0.1-0.7
        c-0.2-0.2-0.5-0.3-0.8-0.2c-0.5,0.3-0.9,0.7-1.2,1.2C268.7,262.8,269.1,263.4,269.5,264L269.5,264z M206.1,258.1
        c1.7,2.1,2.8,2,3.6,0H206.1z M248,261.6c-0.2,0.2-0.3,0.5-0.3,0.8c0.1,0.9,0.3,1.9,0.5,2.8c0.4,0.1,0.7,0.1,1.1,0
        c0.1-0.3,0.1-0.6,0-0.9c-0.2-0.6-0.5-1.1-0.7-1.7C248.4,262.3,248.1,262,248,261.6L248,261.6z M269.1,269.3
        c1.2-0.1,2.3-0.9,2.7-2c-0.1-0.3-0.2-0.6-0.4-0.8c-0.2,0.1-0.4,0.2-0.6,0.4C270.2,267.7,269.7,268.5,269.1,269.3L269.1,269.3z
         M228.7,256.5c0.3,0.5,0.6,1,1,1.4c0.4-0.2,0.8-0.4,1.1-0.7c0.2-0.3,0.3-0.7,0.3-1.1c-0.3-0.1-0.6-0.1-0.9-0.1
        C229.7,256.1,229.2,256.3,228.7,256.5z M281.5,265.7c0.1,0.1,0.1,0.2,0.2,0.3c0.4-0.1,1.1-0.1,1.1-0.4c0.2-0.8,0.3-1.7,0.3-2.5
        C281.2,263.3,282.3,265,281.5,265.7L281.5,265.7z M247.1,260.2c1,1,2.4,0.4,3.4-1C249,258.5,248.5,260.3,247.1,260.2z
         M285.3,259.3c-1.3-0.3-2.3-0.5-3.6-0.8c0.6,1.2,2,1.7,3.2,1.1C285,259.5,285.2,259.4,285.3,259.3L285.3,259.3z M219.6,264.6
        c0.1,0,0.2,0,0.3-0.1c0-0.2,0.1-0.5,0.1-0.7c-0.2-0.9-1-1.6-0.3-2.6l-0.6-0.3c-0.2,0.3-0.4,0.6-0.5,1
        C218.9,262.8,219.3,263.7,219.6,264.6z M189.4,252.1c1.7-0.1,1.4-1.9,2.8-2.3c-0.4-0.2-0.8-0.4-1.2-0.5
        C190.5,250.3,190,251.1,189.4,252.1L189.4,252.1z M280.2,250.3c-0.1,0.1-0.2,0.3-0.3,0.4c0.5,0.6,0.9,1.2,1.4,1.8
        c0.1,0,0.3-0.1,0.4-0.1c0.1-0.5,0.1-0.9,0-1.4C281.2,250.7,280.7,250.5,280.2,250.3L280.2,250.3z M261.1,265.9
        c0.1,0.1,0.2,0.2,0.2,0.3c0.9-0.1,1.8-0.2,2.9-0.3c-0.6-0.4-1.2-0.7-1.9-0.9C262,264.9,261.5,265.6,261.1,265.9L261.1,265.9z
         M207.3,253.1c1-1.2,0.7-1.6-1.3-2C205.4,252.5,207.2,252.2,207.3,253.1L207.3,253.1z M272.3,256.5c-0.5,0.2-1,0.4-1.5,0.5
        c0.5,0.8,0.9,1.3,1.3,1.9c0.1,0,0.3-0.1,0.4-0.1C272.4,258.1,272.3,257.3,272.3,256.5L272.3,256.5z M205.5,259.1
        c-0.5,0.7-1,1.3-1.5,2c0.1,0.1,0.2,0.2,0.3,0.3c0.4,0,0.8-0.2,1-0.5c0.2-0.5,0.4-1.1,0.5-1.7
        C205.7,259.2,205.6,259.1,205.5,259.1L205.5,259.1z M261.8,260.4c0,0.1,0,0.2,0.1,0.3c0.5,0.4,2.5-0.4,2.7-1
        c0-0.2-0.1-0.4-0.2-0.5c-0.3-0.1-0.5-0.1-0.8,0C263.6,260.4,262.3,259.8,261.8,260.4L261.8,260.4z M275,254.9
        c-0.1-0.2-0.1-0.5-0.2-0.7c-0.6,0.1-1.2,0.2-1.8,0.3c-0.2,0.3-0.3,0.6-0.3,0.9c0.1,0.1,0.2,0.2,0.3,0.2
        C273.7,255.4,274.4,255.1,275,254.9L275,254.9z M264.7,268.3c0.1-0.5-0.2-1.1-0.7-1.2c-0.5-0.1-1.1,0.2-1.2,0.7
        c-0.1,0.2,0,0.4,0,0.6C263.5,268.9,264.2,269.2,264.7,268.3L264.7,268.3z M262.9,256.1c0.1,0.2,0.1,0.3,0.2,0.5
        c0.5-0.1,1.2,0,1.3-0.3c0.1-0.5,0.1-1-0.1-1.5C263.8,255.2,263.3,255.7,262.9,256.1L262.9,256.1z M180.4,259h0.4
        c0.3-0.4,0.6-0.9,0.8-1.4c0-0.3-0.1-0.7-0.4-0.9c-0.2,0.1-0.5,0.2-0.7,0.3C180.4,257.7,180.4,258.4,180.4,259L180.4,259z
         M206.7,256.7c0.3,0.2,0.7,0.2,1.1,0.1c0.3-0.4,0.4-0.8,0.4-1.3c-0.1-0.3-0.3-0.6-0.6-0.9C207.3,255.3,207,256,206.7,256.7
        L206.7,256.7z M195.7,249.9c-0.7-0.5-1.3-1-2.1-1.6c-0.1,0.4-0.1,0.7,0,1.1C194.2,249.7,194.5,250.8,195.7,249.9L195.7,249.9z
         M257.9,262.7c-0.6,0-1.1,0.5-1.1,1.2c0,0.6,0.5,1.1,1.2,1c0.1-0.1,0.2-0.3,0.3-0.5C258.3,263.8,258.1,263.3,257.9,262.7
        L257.9,262.7z M239.2,262c-0.1-0.1-0.2-0.1-0.3-0.2c-0.3,0.2-0.6,0.5-0.8,0.9c0.1,0.5,0.2,1,0.5,1.5c0.1,0,0.3-0.1,0.4-0.1
        C239,263.4,239.1,262.7,239.2,262L239.2,262z M279.4,256.4c0.4-1-0.2-1.3-0.9-1.3c-0.3,0.1-0.5,0.3-0.6,0.5
        c0.1,0.6,0.7,1,1.3,0.9C279.3,256.5,279.3,256.5,279.4,256.4L279.4,256.4z M212.5,248.1h-0.4c-0.6,1.2-0.4,2,0.7,2.3
        C212.7,249.6,212.6,248.9,212.5,248.1L212.5,248.1z M241.8,264.2c-0.2,0.8-0.3,1.4-0.5,2c0.1,0,0.2,0.1,0.3,0.1
        c0.5-0.4,0.9-0.9,1.5-1.4C242.7,264.7,242.2,264.5,241.8,264.2z M255.9,249.7l-0.3-0.3c-0.5,0.2-1,0.5-1.6,0.7v0.4
        c0.4,0.2,0.8,0.3,1.3,0.4C255.6,250.6,255.8,250.2,255.9,249.7z M214.1,265.2c-0.2-0.1-0.3-0.2-0.5-0.2c-0.3,0.8-0.6,1.5-0.8,2.3
        c0.2,0.1,0.4,0.1,0.6,0.2C213.6,266.8,213.8,266,214.1,265.2L214.1,265.2z M182.9,261.2c-0.6,0.3-1,0.5-1.5,0.8
        c0.2,0.3,0.4,0.5,0.7,0.6C182.7,262.7,183.2,262.4,182.9,261.2L182.9,261.2z M200.1,267.6c0.2,0.2,0.4,0.4,0.5,0.6
        c0.4-0.2,0.7-0.5,1-0.9c-0.1-0.3-0.3-0.5-0.5-0.7C200.8,267,200.5,267.3,200.1,267.6L200.1,267.6z M185.6,257.8
        c-0.3,0.4-0.6,0.8-0.9,1.2c0.2,0.2,0.5,0.4,0.8,0.5c0.3-0.1,0.5-0.3,0.6-0.6C186,258.5,185.9,258.2,185.6,257.8L185.6,257.8z
         M274.3,263.9c0.3-0.7,0.6-1.2,0.9-1.9C273.6,262.1,273.5,262.4,274.3,263.9L274.3,263.9z M252.6,258.7v-0.5
        c-0.6,0-1.1,0.1-1.7,0.2v0.5C251.5,258.8,252,258.7,252.6,258.7z M291.2,258c-0.4,0.1-0.8,0.3-1.1,0.5c0.1,0.5,0.2,1.1,0.3,1.6
        c0.1,0,0.2-0.1,0.3-0.1C290.8,259.4,291,258.9,291.2,258z M199.7,250.6c0.1-0.2,0.1-0.4,0.2-0.6l-2.1-0.6
        c-0.1,0.2-0.1,0.4-0.2,0.6C198.3,250.1,199,250.3,199.7,250.6z M246.9,266.6l0.3-0.6c-0.7-0.3-1.4-0.5-2-0.8
        c-0.1,0.2-0.1,0.3-0.2,0.5C245.6,266,246.3,266.3,246.9,266.6z M185.6,263.2c0.1,0.2,0.3,0.3,0.4,0.5c0.4-0.1,0.8-0.3,1.1-0.6
        c-0.1-0.3-0.3-0.6-0.5-0.9L185.6,263.2z M225.3,263.3v0.5c0.6-0.1,1.2-0.1,2-0.2C226.5,262.3,225.9,262.8,225.3,263.3
        L225.3,263.3z M271.6,251h-0.3v1.9c0.2,0.1,0.4,0.2,0.6,0.2c0.2-0.1,0.3-0.4,0.3-0.6C272,252,271.8,251.5,271.6,251L271.6,251z
         M240.5,259.7c-0.3-0.2-0.6-0.4-1-0.6c-0.3,0.1-0.6,0.3-0.8,0.5c0.1,0.2,0.3,0.4,0.5,0.6C239.7,260.2,240.1,260,240.5,259.7
        L240.5,259.7z"/>
    </g>
  </symbol>
  <symbol id="logo" version="1.1" x="0px" y="0px" viewBox="0 0 467.1 414.8" xml:space="preserve">
    <g id="ryjCaly">
    	<g>
    		<g id="bryle">
    			<path d="M218.1,163.5c0.3-0.4,0.6-0.8,0.8-1.2c3,0.6,6.2,1.4,9.4,1.8c2.5,0.3,5.1,0.1,7.6,0.3c3.8,0.3,7.2-1.3,10.8-1.9
    				c3.3-0.6,6.6-1,9.9-1.5c3.1-0.5,6.1-1,9.2-1.4c1.1-0.2,2.2-0.2,3.3-0.3c6.4-0.1,12.8-0.3,19.3-0.2c2.6,0.2,5.2,0.5,7.8,0.9
    				c1.3,0.1,2.5,0.1,3.8,0.3c2.7,0.3,5.3,0.7,7.9,1.3c3,0.8,6,1.3,8.9,2.3s5.9,1.9,8.8,2.9c0.6,0.2,1.1,0.4,1.6,0.6
    				c0.3,0.2,0.6,0.5,0.7,0.8c0.7,2.8,0.9,5.7,0.7,8.6c0,1-0.1,1.9-0.3,2.9c-0.1,1.7-1.6,1.9-2.8,2.3s-2.6,0.8-3.9,1.1
    				c-1.4,0.4-2.5,1.5-2.7,3c-0.9,3.7-1.5,7.5-2.2,11.3s-1.2,7.9-2.2,11.8c-1.3,4.4-3.9,8.4-7.5,11.3c-3.9,3.3-8.6,5.4-13.6,6.2
    				c-2.8,0.5-5.6,0.9-8.4,1.2c-0.8,0-1.5-0.1-2.3-0.2c-0.9,0-1.7,0.2-2.6,0.2c-2-0.2-4-0.3-6-0.7c-3.2-0.7-6.5-1.4-9.7-2.4
    				c-3.9-1.1-7.4-3.3-10.2-6.2c-2.8-2.9-5.9-5.7-7.4-9.6c-1.5-3.7-2.6-7.6-3.8-11.4s-2.2-7.8-4.3-11.2c-2.6-4.2-8.3-3.1-10.2,0.5
    				c-2.1,4-3.5,8.2-4.4,12.6c-1.4,5.9-4,11.5-7.6,16.4c-1.8,2.6-4.6,4.3-7.2,6.1c-4.3,2.9-9.3,4.6-14.5,5c-2.2,0.2-4.4,0.4-6.6,0.5
    				c-2,0.1-4.1,0.3-6.1,0.2c-2.6-0.2-5.2-0.6-7.7-1.1c-2.5-0.5-4.9-1.1-7.3-2c-4.2-1.6-7.7-4.5-10.1-8.2c-2.8-4.2-4.7-8.9-5.6-13.8
    				c-0.4-2.2-0.5-4.4-0.8-6.6c-0.4-3.1-0.5-6.3-1.6-9.4c-0.7-1.8-1.6-3-3.6-3.4c-1.7-0.5-3.4-1.1-5.1-1.8c-0.6-0.2-1-0.8-0.9-1.5
    				c0-1.6-0.2-3.2-0.2-4.8c0.1-2.5,0.3-4.9,0.5-7.3c0.1-0.3,0.2-0.5,0.5-0.7c5.2-2.1,10.5-3.8,16-4.8c4.6-0.9,9.2-1.7,13.8-2.4
    				c2-0.3,4.1-0.4,6.1-0.5c5.6-0.2,11.3-0.5,16.9-0.4c2.9,0.2,5.8,0.5,8.7,0.9c1.9,0.2,3.9,0.3,5.8,0.5c2.3,0.3,4.7,0.7,7,1.1
    				c0.6,0.2,1.3,0.3,2,0.3c1.1-0.1,1.6,0.3,1.4,1.5C217.9,163.4,218,163.5,218.1,163.5z M283.1,167.5c-4.3,0.2-8.3,0.4-12.2,0.7
    				c-4.8,0.4-9.4,1.5-13.8,3.4c-2.5,1.1-4.9,2.5-5.6,5.4c-0.4,1.4-0.8,2.8-1.1,4.2c-0.7,3.2-1,6.6-0.6,9.9c0.3,2.5,0.7,5.1,0.9,7.6
    				c0.3,3.6,1.5,7.1,3.4,10.1c1.8,2.7,4.1,5,6.8,6.8c1.7-1.1,1.8-2.9,2.5-4.5c1.8-4.3,3.8-8.5,5.7-12.8c1.4-3.1,2.7-6.3,4.1-9.5
    				c2.8-6,5.7-11.9,8.5-17.8C282.2,170,282.5,168.9,283.1,167.5z M188.5,167.7h-1.4c-4.4,0-8.8,0.3-13.2,1.1
    				c-4.8,0.9-9.5,2-13.8,4.4c-1,0.6-1.8,1.4-2.4,2.4c-1.5,3.4-2.4,7-2.4,10.7c-0.3,4.5,0.9,8.8,1.4,13.3c0.3,4.1,2,8,4.7,11.1
    				c1.4,1.5,3,2.9,4.6,4.2c0.2,0.2,0.6,0.3,0.9,0.1c0.6-0.8,1.2-1.7,1.6-2.6c0.3-0.9,0.5-1.7,0.7-2.6c1.4-3.3,2.9-6.6,4.4-9.9
    				c0.7-1.4,1.5-2.7,2.2-4.2c1.7-3.7,3.2-7.4,4.9-11c1.9-4.1,3.9-8.2,5.8-12.4C187.3,170.9,188,169.3,188.5,167.7L188.5,167.7z
    				 M188.3,221.5c0.1,0.1,0.3,0.2,0.4,0.3c2-0.3,4-0.6,5.9-1c3.5-0.8,6.9-1.7,9.9-3.7c2.4-1.5,4.8-3,6.5-5.3
    				c2.8-3.3,4.6-7.3,5.5-11.5c0.4-2.2,0.7-4.3,1-6.5c0.4-2,0.7-4.1,0.7-6.2c-0.2-2.8-0.6-5.6-1.2-8.4c-0.4-3.1-2.5-5.7-5.5-6.8
    				c-0.3,0.4-0.5,0.7-0.7,1.1c-1.4,3-2.8,6-4.1,8.9c-1,2.2-1.9,4.5-2.9,6.7c-2,4.2-4.1,8.4-6,12.6c-1.2,2.7-2.3,5.4-3.5,8.1
    				c-1.4,3.1-2.7,6.3-4.8,9C189,219.7,188.6,220.6,188.3,221.5z M282.5,221.8c2-0.2,3.6-0.4,5.2-0.6c3.6-0.5,7-1.7,10.1-3.7
    				c1.9-1.2,3.7-2.6,5.3-4.1c2.5-2.3,5-4.6,5.9-8.1c0.9-3.9,2.7-7.6,2.9-11.7c0.1-2.1,0.5-4.2,0.4-6.3c-0.1-2.6-0.4-5.1-0.9-7.6
    				c-0.6-3.2-1.7-6.2-5.6-7.2c-0.5,1-1.1,2-1.6,3c-1.4,3.1-2.7,6.3-4.1,9.3c-2.7,5.9-5.3,11.8-8.1,17.6c-2.6,5.5-5.5,10.8-8.3,16.2
    				C283.2,219.6,283,220.6,282.5,221.8z M198.6,168.5c-1.2-0.3-2.5-0.5-3.8-0.5c-1,0-2.2-0.7-3,0.6c-0.3,0.4-0.5,0.9-0.7,1.4
    				c-0.9,2.7-2,5.4-3.3,7.9c-2.8,5.7-5.4,11.5-8.1,17.2c-0.9,2-1.8,4-2.6,6c-1.8,4.7-4,9.2-6.6,13.4c-0.5,0.9-1,1.9-1.3,2.9
    				c0.7,0.4,1.4,0.8,2.2,1.1c-0.1,0.2-0.3,0.5-0.5,0.7v0.5c1.3-1.2,2.4-0.1,3.6,0.1c0.5-0.9,1.1-1.7,1.5-2.5c1-2.3,1.9-4.7,3-7
    				c2.4-5.3,4.9-10.7,7.4-16c0.3-0.4,0.6-0.8,0.8-1.3c0.9-2.2,1.7-4.5,2.6-6.7c0.9-2,2.1-3.8,3-5.7c1.1-2.8,2.5-5.5,4.1-8
    				C197.8,171.3,198,169.9,198.6,168.5z M292.9,168.8c-1.1-0.3-2.2-0.5-3.3-0.6c-2.9-0.4-3.7,0.1-4.6,2.9c-0.5,1.6-1.2,3.1-1.8,4.7
    				c-0.5,1.3-1.3,2.4-1.8,3.7c-1.1,2.5-2.2,5.1-3.4,7.6s-2.6,5.1-3.8,7.7c-1.8,4.1-3.5,8.2-5.3,12.3c-1,2.2-2.2,4.4-3.4,6.6
    				c-0.6,1.2-1.4,2.4-2.1,3.7c2.1,0.9,3.8,1.6,5.8,2.5c0.7-1.7,1.3-3.3,2-4.8c2.7-6,5.4-11.9,8-17.8c1.3-2.8,2.4-5.6,3.8-8.3
    				c1.4-3,3-5.9,4.5-8.9c1.2-2.4,2.4-4.7,3.5-7.1C291.7,171.5,292.2,170.2,292.9,168.8L292.9,168.8z M324.8,173.7
    				c-2-2.4-7.5-2.4-9.5-0.9c-0.3,0.1-0.5,0.5-0.4,0.8c0.1,0.2,0.2,0.3,0.4,0.4c1.8,1.1,3.9,1.5,6,1
    				C322.5,174.7,323.7,174.3,324.8,173.7L324.8,173.7z M147.9,172c-1.4,0.3-2.8,0.6-4.1,1c-0.4,0.1-0.7,0.5-0.7,0.9
    				c0.1,0.3,0.3,0.6,0.7,0.7c1.1,0.5,2.4,0.8,3.6,0.9c1.5-0.1,3-0.4,4.4-1c1-0.4,1-1.2-0.1-1.6S149.2,172.3,147.9,172L147.9,172z
    				 M241.2,176.3c-1-0.4-2,0.1-2.4,1.1c0,0.1-0.1,0.2-0.1,0.3c-0.2,0.9,0.6,2.3,1.5,2.3c0.5-0.1,1.1-0.3,1.5-0.6
    				c0.1-0.2,0.1-0.3,0-0.5c-0.4-0.1-0.9-0.1-1.3-0.1c-0.1-0.1-0.2-0.1-0.3-0.2C240.4,178,240.8,177.2,241.2,176.3L241.2,176.3z
    				 M232.5,179.1c1.2,0,2.1,0.1,3.1,0.1c0.2-0.2,0.3-0.4,0.3-0.7c-0.6-1.4-1.9-2.3-3.4-2.5c0.1,0.3,0.2,0.6,0.4,0.9
    				c0.9,0.7,0.8,1.2-0.1,1.6C232.7,178.5,232.7,178.6,232.5,179.1L232.5,179.1z M237.9,173.8c-1.2-1-2.1-0.1-2.9,0.4s-0.2,1,0.2,1.5
    				c0,0.2-0.1,0.3-0.1,0.5c0.3,0.4,0.7,0.6,1.2,0.8c0.7,0.1,0.9-0.4,0.6-0.9C236.4,174.9,236.9,174.3,237.9,173.8L237.9,173.8z
    				 M244.8,171.7c0.2,0,0.3,0.1,0.5,0.1c0.7-0.5,1.3-1.3,2.4-0.8c0.2,0.1,0.8-0.8,1.2-1.2c-0.4-0.2-0.9-0.3-1.3-0.4
    				c-0.5,0.1-1,0.2-1.5,0.4c-0.4,0-0.8,0.1-1.2,0.3C244.8,170.7,244.7,171.2,244.8,171.7L244.8,171.7z M232.5,170.8
    				c-0.1-0.1-0.3-0.2-0.4-0.3c-0.6,0.3-1.1,0.5-1.7,0.8c-0.7,0.3-1.3,0.7-1.9,1.1c-0.2,0.2-0.2,0.6,0,0.8c0.3,0.2,0.6,0.3,0.9,0.4
    				c0.1-0.3,0.2-0.6,0.2-0.9c0-0.2,0-0.5-0.1-0.7c1.1,0.7,1.1,0.7,2.4-0.2C232.2,171.6,232.4,171.2,232.5,170.8L232.5,170.8z
    				 M241.4,170.1c-0.4-0.5-0.7-1.1-1-1.7c-0.1-0.4-0.5-0.6-0.9-0.5c-0.2,0-0.3,0.1-0.4,0.3c-0.3,0.4-0.5,0.9-0.6,1.4
    				C238.6,170.1,240.9,170.4,241.4,170.1L241.4,170.1z M226.7,179.1c0.1,0.1,0.2,0.1,0.3,0.2c0.4-0.4,0.6-0.8,0.8-1.3
    				c0.2-0.5,1.1-0.9,0.1-1.5c-0.4-0.3-0.8-0.7-1.2-1.1C226.7,176.6,226.7,177.9,226.7,179.1L226.7,179.1z M222.9,172.1
    				c0.7-0.4,1.3-0.6,1.9-0.9c-0.7-1.2-1.9-0.9-2.9-1.2c-0.2,0.1-0.4,0.3-0.4,0.5c0,0.2,0.1,0.5,0.3,0.6c0.3,0.1,0.6,0.1,0.9,0.1
    				C222.8,171.5,222.9,171.8,222.9,172.1L222.9,172.1z M226.4,172.9c0.8-0.7,1-2,0.4-2.9c-0.4-0.2-0.9-0.3-1.4-0.3
    				c0.1,0.3,0.2,0.7,0.3,1l0.3,0.9C226.1,172.1,226.2,172.5,226.4,172.9L226.4,172.9z M222.1,178.5c0,0.6,0.5,1,1,1
    				c0.1,0,0.3,0,0.4-0.1c0.6-0.2,1.2-0.5,1.7-0.9c-0.3-0.4-0.6-0.7-0.7-0.9C223.6,177.9,222.9,178.2,222.1,178.5L222.1,178.5z
    				 M301.5,172.1l0.3,0.3c0.7-0.4,1.2-0.9,1.6-1.6c0.2-0.4-0.4-1.1-0.7-1.7c-0.1,0-0.3,0.1-0.4,0.1
    				C302.1,170.2,301.8,171.1,301.5,172.1L301.5,172.1z M223.8,174c-0.4-0.3-0.8-0.5-1.3-0.6c-0.3,0.1-0.6,0.3-0.8,0.6
    				c0.2,0.5,0,1.6,0.9,1.5C223,175.5,223.3,174.7,223.8,174z M190,197.5c-1.4,0.4-1.5,0.9-0.8,2.7c0.1,0.2,0.3,0.3,0.5,0.3
    				C189.8,199.4,189.9,198.5,190,197.5z M246.8,173.5c-0.5-1.3-0.9-1.5-1.9-0.7C245.3,174.1,245.5,174.2,246.8,173.5z M243.1,174.2
    				c-0.6-0.4-0.9-0.7-1.3-0.9c-0.2,0.1-0.4,0.2-0.6,0.4c0.2,0.5,0.5,1,0.7,1.4C242.2,174.9,242.5,174.6,243.1,174.2z M289,195.4
    				c0,0.2,0.1,0.3,0.1,0.5c0.6-0.1,1.3-0.2,1.9-0.4c0.2-0.2,0.3-0.5,0.3-0.8c-0.1-0.1-0.3-0.2-0.4-0.2
    				C290.3,194.8,289.6,195.1,289,195.4L289,195.4z M284.3,206.6v-0.3c-0.3-0.2-0.6-0.3-0.9-0.4c-0.3,0.1-0.6,0.3-0.8,0.6
    				c0.2,0.2,0.5,0.4,0.8,0.5C283.7,207,284,206.8,284.3,206.6L284.3,206.6z"/>
    			<path d="M138.3,168c0.2,4.1,0.3,8.2,0.5,12.3c-0.8,0.1-1.5-0.4-1.7-1.1c-0.8-3.1-0.9-6.4-0.5-9.6
    				C136.7,168.4,137.7,168.4,138.3,168z"/>
    			<path d="M328.8,168.3c1.7,0.5,2.1,1.5,1.9,3.5c-0.2,2.3-0.3,4.5-0.1,6.8c0.1,0.8-0.4,1.6-1.3,1.8c0,0-0.1,0-0.1,0
    				C329.1,176.3,329,172.3,328.8,168.3z"/>
    		</g>
    		<g id="nos">
    				<radialGradient id="SVGID_1_" cx="390.1207" cy="524.1601" r="6.95" gradientTransform="matrix(0.7 0 0 1 -50.0958 -293.44)" gradientUnits="userSpaceOnUse">
    				<stop  offset="0.57" style="stop-color:#161412"/>
    				<stop  offset="0.8" style="stop-color:#161412"/>
    				<stop  offset="1" style="stop-color:#161412"/>
    			</radialGradient>
    			<ellipse class="st0" cx="223.9" cy="230.7" rx="6.6" ry="2.8"/>
    				<radialGradient id="SVGID_2_" cx="390.0837" cy="117.1199" r="6.95" gradientTransform="matrix(1 0 0 -1 0 322.11)" gradientUnits="userSpaceOnUse">
    				<stop  offset="0.57" style="stop-color:#161412"/>
    				<stop  offset="0.8" style="stop-color:#161412"/>
    				<stop  offset="1" style="stop-color:#161412"/>
    			</radialGradient>
    			<ellipse class="st1" cx="242.9" cy="230.7" rx="6.6" ry="2.8"/>
    		</g>
    	</g>
    	<g id="pierun">
    		<path d="M224.6,331.8c-0.5-0.4,8.8-19.9,8.4-20.7s-10.2-4-10.7-5.5s19.5-24.2,20-23.7s-8.7,20.1-8.4,20.7s10.4,3.9,10.7,5.5
    			S225.1,332.2,224.6,331.8z"/>
    	</g>
    	<g id="wlosy">
    		<path d="M201.1,130.9c0.5-1.3,1-2.5,1.5-3.6c0.9-1.8,1.8-3.6,2.9-5.3c2-3.1,4.4-5.8,7.3-8.1c1.9-1.5,3.5-3.4,5.5-4.9
    			c1.6-1.1,3.2-2,5-2.8c2.3-1.1,4.6-2,6.9-2.9c1.7-0.7,3.4-1.3,5.1-2.1c-1.6,0.4-3.3,0.6-4.9,1.1c-2,0.6-4,1.5-6,2.2
    			c-1.8,0.6-3.6,1.3-5.3,2.1c-2.5,1.4-5,3-7.3,4.7c-1.8,1.2-3.4,2.6-4.9,4.2c-2.1,2.3-4,4.7-5.9,7.2c-1.2,1.7-2.3,3.5-3.3,5.4
    			c-0.1,0.1-0.2,0.2-0.2,0.4c0.2,1.7-1.1,2.2-2.1,2.8c-6.8,3.7-13.6,7.4-20.5,11.1c-0.9,0.4-1.8,0.6-2.8,0.7
    			c-0.2-0.1-0.3-0.2-0.4-0.4c0.7-2.7,1.4-5.5,2.2-8.2c0.5-2.2,1.3-4.4,2.3-6.4c1.8-3.2,3.8-6.3,6.1-9.2c1.7-2.2,3.7-4.2,5.9-5.9
    			c1.9-1.6,3.8-3.1,5.9-4.5c2.3-1.3,4.6-2.4,7.1-3.3c2-0.8,4.1-1.4,6.2-1.8c0.6-0.2,1.6,0.4,1.4-1c0-0.1-0.1-0.1-0.1-0.2
    			c-0.9,0.4-1.9,0.8-2.9,1c-4.1,0.4-7.9,2.1-11.8,3.4c-1.8,0.6-3.3,1.9-5,2.8c-1,0.6-2.1,1-3.1,1.5l-0.6,0.3c-2.4,2.1-4.9,4-7.1,6.2
    			s-3.8,4.5-5.7,6.8c-3.1,4-5.4,8.6-6.9,13.4c-1.1,3.3-1.8,6.8-2.1,10.3c-0.1,0.4-0.3,0.8-0.6,1l-14.7,9.9c-0.3,0.2-0.7,0.4-1.1,0.7
    			c-0.4-1.6-0.7-3.3-0.9-4.9c-0.2-3.7-0.3-7.3-0.2-11c0.1-2.2,0.6-4.3,0.9-6.5c0.5-3.9,1.5-7.8,2.9-11.5c1.7-4.6,4.1-8.9,7.2-12.8
    			c1.9-2.4,3.7-4.9,5.7-7.2c1.3-1.6,2.8-3.1,4.5-4.3c3.8-2.8,7.6-5.5,11.6-8.1c4.3-2.7,9.1-4.8,14.1-6c2.9-0.8,5.7-1.9,8.7-2.5
    			c3.9-0.8,7.8-1.8,11.9-1.6c2.6,0.1,5.2-0.1,7.8-0.2c4.2-0.1,8.3,0.3,12.4,1.2c3.5,0.8,7.1,1.6,10.6,2.6c4.4,1.4,8.5,3.4,12.3,6
    			c5.1,3.3,10.1,6.5,15.1,9.9c1.3,0.9,2.4,2,3.5,3.1c1.9,1.9,4.6,2.7,7.2,2.3c1.6-0.2,3.2-0.1,4.8,0.2c3.8,0.7,7.6,1.4,11.4,2.4
    			c2.3,0.7,4.6,1.5,6.8,2.6c3.6,1.6,6.8,3.9,9.5,6.8c3.4,3.6,5.6,8.1,6.4,12.9c0.5,3,0.7,6,0.6,9c-0.1,3.3-0.9,6.5-2.3,9.5
    			c-1.3-1.9-2.8-3.7-4.3-5.4c-3.7-3.8-7.3-7.8-11.3-11.2c-4.5-3.7-9.1-7.2-14-10.4c-2.4-1.4-4.8-2.6-7.4-3.6
    			c-3.9-1.7-8.1-2.6-12.3-2.7c-1.7,0-3.3-0.2-5-0.2c-2,0-4-0.1-6,0c-3,0.2-6,0.6-8.9,0.9c-2.4,0.2-4.7,0.5-7.1,0.7
    			c-3.7,0.4-7.3,1.1-10.9,2.1c-3.8,1-7.7,1.6-11.4,2.7c-6.3,2-12.6,4.3-18.9,6.4C201.8,130.9,201.5,131,201.1,130.9z M250.3,109.9
    			c0-0.5,0.1-1,0.1-1.8c-0.6,0.4-1.2,0.7-1.9,1c0,0.1,0,0.3,0.1,0.4C249.2,109.7,249.7,109.8,250.3,109.9c0.1,0.4,0.1,0.7,0.1,1.1
    			c0.8,0.1,1.6,0.1,2.5,0.2c-0.3-1.2-1.2-2.6,0.5-3.4c-0.5-0.1-1.1-0.2-1.7-0.3c-0.2,0.8-0.3,1.4-0.5,2.2
    			C250.9,109.9,250.6,109.9,250.3,109.9z M309.9,127.4c-0.8-0.6-1.5-1.2-2.3-1.7c-0.1,0.2-0.2,0.3-0.3,0.5c0,0.7,0.1,1.3,0.3,2
    			c0.3,0.4,0.7,0.7,1.2,0.7c1.6-0.5,1.7-0.5,2,1.2c0,0.4-0.1,0.8-0.4,1.1c-0.5,0-1-0.1-1.4-0.3c-0.4-0.2-0.8-0.4-1.1-0.6
    			c-0.4,0.9,0.1,1.9,1,2.3c0,0,0,0,0,0c1.4,0.7,2.2-0.7,3.3-1c0-0.4-0.1-0.9-0.2-1.3c-0.1-0.3-0.1-0.5,0-0.8
    			c0.3-1.7,0.2-2.2-1.3-3.3C310.5,126.7,310.2,127.1,309.9,127.4z M183.4,103.7c0.7,0.2,1.3,0.4,2,0.5v0.7c0.2,0.8,1.3,1.6,1.9,1.3
    			c1.5-0.8,1.9-2.3,2.5-4c-0.7,0.3-1.2,0.4-1.8,0.7c0.1-0.3,0.2-0.6,0.3-0.9c0.3-0.6,0.7-1.2,1-1.9c0.1-0.3,0-0.7-0.2-0.9
    			c-0.3-0.1-0.7-0.1-1,0c-0.1,0.2-0.2,0.5-0.2,0.8c0,0.4,0,0.7-0.1,1.1c-0.4,0.7-0.8,1.4-1.4,2.4C185.7,104,184.8,102,183.4,103.7z
    			 M257.9,104c-0.4-0.3-0.8-0.5-1.3-0.6c-0.5-0.1-1.1-0.1-1.6,0.2c-0.3,0.5-0.4,1-0.4,1.6c-0.1,0.6-0.1,1.1,0,1.7
    			c0.1,0.4,0.2,0.8,0.5,1.1c0.8,0.2,1.7,0.4,2.5,0.4c0.4-0.1,0.8-0.3,1.1-0.7c0-0.2-0.1-0.3-0.2-0.5c-0.8-0.6-1.7-1.2-2.9-2
    			C256.5,104.7,257.2,104.4,257.9,104z M216.5,88.5c-0.4,1.1-1.6,1.7-2.8,1.4c-0.2-0.1-0.5-0.2-0.6-0.4l-0.3,0.3
    			c0.6,0.8,1.3,1.5,1.9,2.4c0.1-0.2,0.3-0.4,0.4-0.6c0.3-0.4,0.7-0.6,1.2-0.8c0.4,0.2,0.7,0.5,0.9,0.9c0.3,0.5,0.6,1,0.8,1.5
    			c0.5,1.2,0.8,1.3,1.8,0.1c-0.4-0.5-1.2-1-1.3-1.7c0-0.8,0.2-1.6,0.6-2.3c-0.9,0.4-1.6,0.8-2.1,1C216.5,89.7,217.4,88.5,216.5,88.5
    			z M236.6,111.3h0.2c1.3,0.1,1.4-0.1,1-1.3c-0.1-0.4-0.1-0.8,0-1.2c1.2,0.1,2.2,0.3,3.3,0.3c0.6,0,1.3-0.1,1.9-0.2
    			c0.2-0.1,0.4-0.3,0.5-0.5c-0.4-0.6-0.9-1.2-1.4-1.8c-0.1,0.1-0.2,0.1-0.3,0.2c0.1,0.5,0.2,1.1,0.3,1.6c-0.6-0.4-1-0.5-1.4-0.8
    			c-1-0.9-2.6-0.8-3.5,0.2c-0.3,0.3-0.5,0.7-0.6,1.2C236.6,109.8,236.6,110.6,236.6,111.3L236.6,111.3z M189,121.7
    			c0,0.1,0,0.2-0.1,0.3c0.3,0.1,0.5,0.2,0.7,0.4c0.2,0.3,0.4,0.7,0.6,1c-0.4,0.2-0.8,0.2-1.2,0.2c-0.5-0.3-1-0.6-1.5-0.9
    			c-0.4,1,0.6,1.9,1.9,1.9c0.3,0,0.6,0.1,0.9,0.2c0.4,0.2,0.9,0.4,1.3,0.5c0.2-0.4,0.3-0.8,0.5-1.2c0-0.1,0.1-0.3,0.1-0.4
    			c1.3,0.7,1.3,0.7,2-0.3c-1.1-0.3-2.6,0-2.2-1.8C191,121.6,190,121.6,189,121.7L189,121.7z M192,96.2c-0.1,0.5-0.1,1.1-0.1,1.6
    			c0,0.3,0.1,0.6,0.3,0.8c0.4,0.2,0.9,0.2,1.4,0.2c-0.1-0.8,1.6-1.2,0.4-2.3c-0.2-0.2-0.3-0.5-0.2-0.8c0.3-1,0.7-1.9,0.9-2.8
    			c0-0.4-0.1-0.7-0.3-1c-0.3,0.1-0.6,0.2-0.8,0.4c-0.3,0.2-0.4,0.5-0.4,0.8C193.3,94.4,192.3,95.2,192,96.2z M154.5,134.6
    			c-0.1,0.1-0.2,0.3-0.2,0.4c0.4,0.3,0.9,0.6,1.4,0.8c0.7,0,1.3,0.3,1.6,0.9c0.4,0.1,0.9,0.1,1.3,0c0.4,0,0.8-0.1,1.2-0.1
    			c0.2,0,0.5,0.1,0.8,0.1c-0.5-0.8-0.8-1.5-1.2-2.2c-1.6,1.3-2.2,1.1-3.1-0.5c-0.2-0.2-0.4-0.4-0.6-0.6c-0.1,0.4-0.2,0.7-0.3,1.1
    			C155.1,134.6,154.8,134.7,154.5,134.6L154.5,134.6z M295.1,119c-0.7-0.7-1.2-1.3-1.8-1.9c-0.2,0.1-0.4,0.3-0.6,0.4l-1.5,1.5
    			c-0.2,0.3-0.3,0.6-0.3,1c0.3,0.3,0.7,0.5,1.1,0.5c0.7-0.1,1.4-0.3,2-0.6C294.3,119.7,294.6,119.4,295.1,119L295.1,119z
    			 M229.1,117.3c0-1.5,0.9-2.8-0.9-3.6c-0.3,0.4-0.5,0.8-0.7,1.2H224c0,0.2-0.1,0.4-0.1,0.6C225.9,115.1,227.3,116.4,229.1,117.3
    			L229.1,117.3z M172.2,115c0-0.8-0.8-1.8,0.6-1.7c1.2,0,1.3-0.7,1.2-1.7c-0.5,0.2-1.1,0.3-1.6,0.3c-1.6-0.2-1.6-0.3-1.5,1.3
    			c0,0.2-0.1,0.4-0.1,0.6c-0.1,0.4-0.1,0.8-0.2,1.3C171.1,115,171.7,115,172.2,115L172.2,115z M173.2,106.4c1.5,0.3,3-0.3,3.7-1.6
    			c0.4-0.7,0-1-0.7-1.1C175,103.6,173.5,105,173.2,106.4L173.2,106.4z M154.1,136.7c-0.2,0.1-0.3,0.3-0.5,0.4c0,1-0.6,2-1.5,2.5
    			c-0.8,0.4-0.5,1.4,0.4,2.1c0-0.1,0.1-0.2,0.1-0.3c0-1,0.1-1.7,1.4-1c0.2,0,0.4,0,0.5-0.1v-1.9
    			C154.4,137.9,154.2,137.4,154.1,136.7L154.1,136.7z M308,121.9c0.1-0.2,0.2-0.5,0.3-0.7c-0.1-0.1-0.1-0.2-0.2-0.3
    			c-0.4,0.1-0.7,0.3-1,0.5c-0.4,0.7-0.6,1.4-1,2.3c0.6,0.1,1.1,0.3,1.6,0.5c0.9,0.4,1.4,0.2,1.3-0.8
    			C308.7,122.9,308.4,122.4,308,121.9z M301.4,125.5c0.5-0.5,1.1-0.9,1.7-1.3c-0.2-0.2-0.4-0.4-0.5-0.3c-0.9,0.2-1.8,0.4-2.8,0.7
    			c0.9,0.3,1.9,0.4,1.4,1.6c0.1,0.2,0.2,0.3,0.4,0.3c1,0.3,2-0.2,2.4-1.2c0.1-0.3,0-0.7-0.1-1c-0.3,0.1-0.6,0.3-0.8,0.6
    			c-0.2,0.6-0.9,0.9-1.5,0.7C301.5,125.6,301.5,125.6,301.4,125.5z M199.2,93.6c0.3,0.8,0.6,1.4,0.9,2.1c0.2-0.1,0.5-0.3,0.7-0.4
    			c0.1-0.2,0.4-0.4,0.6-0.5c0.7,0,1-0.2,0.8-0.9c0-0.6-0.4-1-1-1c-0.1,0-0.2,0-0.3,0C200.3,93.1,199.7,93.3,199.2,93.6z M243.2,94.6
    			v-0.4c-0.5-0.9-0.9-1.8-1.5-2.8c-0.6,0.6-1.2,1.3-1.7,2c-0.1,0.2,0,0.4,0.1,0.6C241.1,94.2,242.1,94.4,243.2,94.6z M175.5,110.1
    			c0.3,0.5,0.7,0.9,1.1,1.3c0.6,0.6,1,0.4,1.2-0.4c0.1-0.5,0.3-0.9,0.6-1.3C177.5,108.6,177.2,108.5,175.5,110.1z M160.4,125.7
    			c-0.9-0.8-1.7-0.6-2.1,0c-0.7,0.7-0.6,1.9,0.1,2.5c0,0,0,0,0.1,0.1C159.1,127.5,159.7,126.6,160.4,125.7L160.4,125.7z
    			 M162.4,134.8c0-0.4-0.1-0.9-0.2-1.3l-1.3-2.6c-0.3,0.2-0.6,0.5-0.7,0.9C160.3,133.2,161.2,134.3,162.4,134.8L162.4,134.8z
    			 M232.4,115.4c1,0.4,1.7,1,2.5,1c0.3,0,0.7-1,1-1.6l-0.3-0.3c-0.9,0.9-1.6,0.5-2.2-0.2C233.1,114.6,232.9,114.9,232.4,115.4
    			L232.4,115.4z M158,147.2c0.2-0.2,0.4-0.4,0.6-0.7c-0.1-0.7-0.2-1.4-0.5-2c-0.2-0.2-0.5-0.4-0.8-0.5c-0.2,0.3-0.4,0.6-0.5,1
    			c0.1,0.6,0.3,1.2,0.6,1.7C157.6,146.9,157.8,147.1,158,147.2L158,147.2z M226.8,95.2c-0.5-0.4-1.1-0.7-1.8-0.8
    			c-0.6,0.1-1.3-0.9-1.7,0.1c-0.1,0.2,0.6,0.7,1,1.1l0.2-0.2c0.1,0.3,0.1,0.6,0.2,0.9C225.4,95.9,226.1,95.5,226.8,95.2L226.8,95.2z
    			 M228.9,95.1c0-0.4-0.1-0.8-0.3-1.1c-0.4-0.2-0.9-0.2-1.3-0.2c-0.1,0.2-0.2,0.5-0.2,0.8c0.2,0.5,0.4,1,0.6,1.4
    			c0.1,0.2,0.3,0.4,0.5,0.6c0.2-0.1,0.5-0.4,0.6-0.6C228.9,95.7,228.9,95.4,228.9,95.1L228.9,95.1z M183,104.7c-0.4-1-0.7-2-1.1-3
    			c-0.1-0.1-0.3-0.2-0.5-0.2c-0.2,0.1-0.3,0.4-0.3,0.6c0,0.5,0.2,1,0.2,1.5C181.5,104.8,181.7,105,183,104.7L183,104.7z
    			 M160.4,123.3c0.1,0.1,0.2,0.2,0.2,0.3c0.9-0.7,1.8-1.4,2.6-2.1c0-0.3,0-0.7-0.1-1c-0.3,0.2-0.5,0.3-0.8,0.5
    			c-0.2,0.3-0.4,0.5-0.6,0.8C160.5,121.6,160.8,122.7,160.4,123.3L160.4,123.3z M228.5,92.6V93c1.1,0.2,2.3,0.4,3.4,0.5
    			c0.2-0.1,0.4-0.4,0.4-0.6c0-0.3-0.2-0.5-0.5-0.5c-0.9,0.6-1.6,0.1-2.5-0.2C229,92.3,228.7,92.4,228.5,92.6L228.5,92.6z
    			 M238.8,90.3c-0.3,0.4-0.6,0.7-1,1c0.5,0.4,0.9,0.8,1.3,1.3c0.3-0.2,0.6-0.5,0.8-0.9C239.6,91.2,239.2,90.8,238.8,90.3L238.8,90.3
    			z M178.2,104.2c0,1.1,0.8,1.9,1.9,1.9c0.4,0,0.9-0.1,1.2-0.4C180.3,105.2,179.4,104.8,178.2,104.2L178.2,104.2z M232.2,96.7
    			c0.5-0.2,1-0.4,1.5-0.7c0.2-0.3,0.3-0.6,0.3-0.9c-0.2-0.1-0.5-0.2-0.8-0.2c-0.7,0.3-1.4,0.6-2,0.9
    			C231.6,96.1,231.9,96.4,232.2,96.7L232.2,96.7z M249.8,103.8c0.6,0.3,1.3,0.1,1.2-0.6s-0.2-1.1,0.5-1.4c0.1-0.2,0-0.5-0.1-0.7
    			c-0.2-0.1-0.5-0.1-0.7,0c-0.2,0.3-0.4,0.7-0.5,1.1C250.1,102.8,250,103.3,249.8,103.8L249.8,103.8z M180.7,99.6
    			c0.9,1.1,2.4,0.5,3.3-1C182.5,98,182.1,99.8,180.7,99.6L180.7,99.6z M173.5,104.9c0.4-1.3,0.1-2-0.8-2c-0.4,0.1-0.8,0.4-1.1,0.8
    			C172.2,104.2,172.8,104.6,173.5,104.9L173.5,104.9z M158.9,140c-0.1-0.4-0.3-0.8-0.5-1.1c-0.6-0.2-1.2-0.4-1.9-0.4
    			c-0.2,0.1-0.3,0.3-0.3,0.5c0.1,0.2,0.3,0.4,0.6,0.5C157.5,139.8,158.2,140,158.9,140L158.9,140z M215.4,98
    			c0.4,1.1,1.6,1.7,2.7,1.3c0.2-0.1,0.5-0.2,0.7-0.4C217.6,98.5,216.6,98.3,215.4,98L215.4,98z M199.6,90c1.1-0.4,2.1-0.7,3.4-1.1
    			c-0.7-0.2-1.1-0.2-1.5-0.3C200.2,88.2,199.9,88.4,199.6,90L199.6,90z M221.5,90.4c-0.6,0.3-1.3,0.6-2,0.9c0.3,0.3,0.6,0.6,1,0.8
    			C221.4,92.2,221.8,91.7,221.5,90.4L221.5,90.4z M253.4,104.4c-0.1-0.1-0.2-0.2-0.4-0.2c-0.5,0.6-0.9,1.2-1.2,1.8
    			c0.1,0.4,0.2,0.8,0.5,1.1c0.1,0,0.3,0,0.4-0.1C252.8,106.1,253.1,105.3,253.4,104.4L253.4,104.4z M223.5,97.6
    			c-0.1,0.1-0.3,0.2-0.4,0.3c0.4,0.5,0.8,1,1.1,1.6c0.3-0.3,0.6-0.7,0.7-1.2C224.9,97.2,224.1,97.7,223.5,97.6L223.5,97.6z
    			 M218.8,88.2c0.6-0.3,1.2-0.7,1.8-1c-0.1-0.3-0.4-0.6-0.7-0.8c-0.7,0.1-1.3,0.7-1.2,1.4C218.7,88,218.7,88.1,218.8,88.2
    			L218.8,88.2z M245.3,110.5c-0.1,0-0.3,0.1-0.4,0.1c-0.1,1-0.1,1.9-0.2,3c1,0.1,0.8-1,1.1-1.6C245.7,111.5,245.5,111,245.3,110.5z
    			 M237.8,114.5c0.7-1.2,0.3-1.8-1.4-2.3C236,113.5,237.2,113.8,237.8,114.5z M246.6,96.8c0.1,0.7,0.3,1.5,1.3,1.2
    			c0.3-0.2,0.6-0.5,0.6-0.9C248,96.3,247.4,96.3,246.6,96.8z M159.4,117.9c-1.4,1.2-1.5,2.1-0.4,3.6
    			C159.2,120.3,159.3,119.2,159.4,117.9L159.4,117.9z M298.4,121.2c0.7-0.9,1.3-1.6,1.9-2.4C298.6,118.9,297.8,120.1,298.4,121.2
    			L298.4,121.2z M228.8,89.5c-0.3,0.5-0.4,0.8-0.6,1.1c0.6,0.3,1.2,0.6,1.9,1C230.7,90.1,229.2,90.3,228.8,89.5z M213.4,89.2
    			c0.1-0.4,0.2-0.9,0.3-1.3h-2.6v0.3C211.8,88.5,212.4,88.8,213.4,89.2z M189.9,118.2c-0.4,0.3-0.8,0.6-1.1,1
    			c0.2,0.4,0.5,0.6,0.9,0.8c0.4-0.2,0.7-0.5,0.9-0.9C190.4,118.8,190.2,118.5,189.9,118.2z M205.8,96c-0.5,0.2-1,0.4-1.5,0.5
    			c0.5,0.8,0.9,1.3,1.3,1.9c0.1,0,0.3-0.1,0.4-0.1C205.9,97.6,205.8,96.8,205.8,96z M244.6,108.8c0.1,0.2,0.1,0.3,0.2,0.5
    			c0.4,0,0.8,0.1,1.2,0.1s0.7-0.1,1-0.1c-0.3-0.4-0.7-0.8-1.1-1C245.4,108.4,245,108.6,244.6,108.8z M206.3,94.9
    			c1,0.1,1.8,0.1,2.1-1C207.1,93.4,206.4,93.7,206.3,94.9L206.3,94.9z M196.3,95.7c0.1,0.2,0.1,0.3,0.2,0.5c0.5-0.1,1.2-0.1,1.3-0.4
    			c0.1-0.5,0-1-0.2-1.5C197.2,94.8,196.8,95.3,196.3,95.7L196.3,95.7z M222.4,116.9c0.1-0.1,0.2-0.2,0.2-0.3c-0.3-0.4-0.6-0.8-1-1.1
    			c-0.2-0.2-0.4-0.3-0.7-0.3c-0.2,0.1-0.4,0.3-0.4,0.5c0,0.3,0.1,0.6,0.4,0.8C221.4,116.7,221.9,116.8,222.4,116.9L222.4,116.9z
    			 M236.5,94c0.6-1.3-0.2-1.6-0.8-2c-0.4,0-0.8,0.1-1.2,0.2C235.4,93,235.9,93.4,236.5,94L236.5,94z M250.4,113.6
    			c0.1-0.1,0.2-0.2,0.4-0.2c-0.1-0.5-0.3-1.1-0.4-1.6c-0.6,0.2-1,0.3-1.8,0.5C249.3,112.8,249.9,113.2,250.4,113.6L250.4,113.6z
    			 M185.3,126.7L185,127c0.3,0.5,0.6,0.9,1,1.3c0.3-0.4,0.7-0.9,1.2-1.6H185.3z M238,115.7c0.4,0.1,0.7,0.1,1.1,0
    			c0.4-0.6,0.7-1.3,1.1-2c-0.1-0.1-0.3-0.2-0.4-0.2C239.4,114.1,238.8,114.7,238,115.7L238,115.7z M193.7,115.5
    			c-0.2,0.2-0.4,0.5-0.5,0.8c0.2,0.5,0.4,0.9,0.6,1.4c0.3-0.2,0.5-0.5,0.6-0.8C194.3,116.4,194,115.9,193.7,115.5L193.7,115.5z
    			 M270.8,109.3c-0.4-0.1-0.9-0.1-1.3,0c-0.3,0.7-0.9,1.4-0.3,2.1C269.7,110.7,270.2,110.1,270.8,109.3L270.8,109.3z M212.9,95.9
    			c0.4-1-0.2-1.3-0.9-1.3c-0.3,0.1-0.5,0.3-0.6,0.5c0.1,0.6,0.7,1,1.3,0.9C212.8,96,212.8,96,212.9,95.9L212.9,95.9z M156.9,143.3
    			c-0.3-0.3-0.7-0.5-1.1-0.5c-0.3,0.2-0.7,0.4-0.9,0.7c0.3,0.2,0.5,0.7,0.8,0.6C156.2,144,156.6,143.7,156.9,143.3L156.9,143.3z
    			 M261.8,110.6l0.3-0.3c-0.3-0.4-0.6-0.7-0.9-1.1c-0.3,0.4-0.7,0.8-1.2,1.4L261.8,110.6L261.8,110.6z M177.4,108.4
    			c1.7-0.7,1.8-0.9,1.1-2C178.3,107.2,176.9,107.1,177.4,108.4L177.4,108.4z M158.3,141.2c-0.3-0.4-0.7-0.6-1.1-0.8
    			c-0.2,0.1-0.4,0.3-0.6,0.5c0.2,0.4,0.4,0.8,0.7,1.1C157.7,141.8,158,141.5,158.3,141.2L158.3,141.2z M262.8,111.2l0.3,0.3
    			c0.6,0.1,1.2-0.4,1.3-1c0,0,0-0.1,0-0.1c-0.1-0.2-0.2-0.4-0.4-0.5C263.5,110.3,263.1,110.7,262.8,111.2L262.8,111.2z M257.6,110.9
    			c-0.1-0.1-0.3-0.1-0.4-0.2c-0.1,0.5-0.2,0.9-0.3,1.4c0.1,0.4,0.2,0.8,0.4,1.2c0,0,0.5-0.2,0.8-0.3c-0.4-0.5-0.8-0.9-1.1-1.3
    			C257.3,111.5,257.5,111.3,257.6,110.9L257.6,110.9z M153.1,133.5c-0.2,0.1-0.4,0.1-0.6,0.2c0.2,0.5,0.3,1.1,0.5,1.6
    			c0.2-0.1,0.5-0.1,0.7-0.1C153.5,134.7,153.3,134.1,153.1,133.5z M232.5,115.3c-0.4-0.1-0.8-0.1-1.2,0c-0.3,0.4-0.5,0.9-0.6,1.4
    			c0.1,0.1,0.3,0.1,0.4,0.2C231.5,116.5,231.9,116,232.5,115.3z M169.2,113.6c0.1-0.5,0.1-1.1,0.1-1.6c-0.2-0.3-0.4-0.5-0.6-0.7
    			c-0.1,0.5-0.1,1.1,0,1.6C168.8,113.2,169,113.5,169.2,113.6L169.2,113.6z M241.5,101.3c-0.1-0.5-0.3-0.9-0.5-1.4
    			c-0.7,0.4-1.2,0.6-1.9,1C239.9,101.1,240.7,101.2,241.5,101.3z M261.9,106.3c0.7,0.1,1.5,0.2,2.2,0.2
    			C263.6,105.3,263.1,105.2,261.9,106.3z M312.9,130.5c1.1,0,1.2-0.6,1-1.4C312.7,128.9,312.8,129.6,312.9,130.5z M246.8,94
    			c-0.1,0.7-0.1,1.4-0.1,2.1C248,95.3,248,95.1,246.8,94z M157.9,132.1c-0.1,0.1-0.3,0.2-0.4,0.3c0.2,0.4,0.5,0.8,0.7,1.2
    			c0.2-0.2,0.4-0.4,0.5-0.7C158.5,132.6,158.2,132.3,157.9,132.1z M309.8,126c0.6-0.6,1.1-0.9,1.5-1.3c0-0.2-0.1-0.4-0.2-0.6
    			c-0.4,0.3-0.8,0.6-1.2,1C309.8,125.4,309.8,125.7,309.8,126z M245.2,102.2c0.7-0.2,1.3-0.4,2-0.5
    			C246.2,100.9,245.5,101,245.2,102.2z"/>
    	</g>
    </g>
  </symbol>
  <symbol id="badge" viewBox="0 0 116.52 95.5">
    <path d="M22,67.92l-3.66.65V79.13L22,78.48a5.91,5.91,0,0,0,4.85-6.14C26.85,69.1,24.86,67.41,22,67.92Z"/>
    <path d="M0,58.69l0,36.8L106.68,76.55a12.45,12.45,0,0,0,9.83-11.9l0-26.65ZM22,82.62l-6.53,1.16-0.65.12a0.5,0.5,0,0,1-.65-0.56l0-17.51A0.74,0.74,0,0,1,14.79,65l3.53-.63L22,63.77c5-.9,8.89,2.52,8.9,7.85A11.18,11.18,0,0,1,22,82.62ZM44.22,78a0.74,0.74,0,0,1-.65.79l-9,1.6-0.65.12A0.5,0.5,0,0,1,33.25,80l0-17.51a0.74,0.74,0,0,1,.65-0.79L37.4,61l6-1.07a0.5,0.5,0,0,1,.65.56v2.8a0.74,0.74,0,0,1-.65.79l-6,1.07v3.15l5.36-1a0.5,0.5,0,0,1,.65.56v2.69a0.74,0.74,0,0,1-.65.79l-5.36,1v3.37l6.14-1.09a0.5,0.5,0,0,1,.65.56V78Zm8.08-.39c-3.42.61-6.43-.56-6.75-4.41a0.73,0.73,0,0,1,.65-0.82l2.87-.51a0.53,0.53,0,0,1,.68.53c0.21,0.93,1,1.28,2.54,1,1.7-.3,2.25-1.07,2.24-1.85,0-1.11-1.31-1.36-2.9-1.64-2.59-.45-5.85-1-5.86-5.1,0-3.77,3-6.19,6.08-6.74s6,0.63,6.3,4.48a0.73,0.73,0,0,1-.65.82l-2.87.51A0.53,0.53,0,0,1,54,63.37c-0.21-1-.89-1.3-2.09-1.08A2,2,0,0,0,50,64.08c0,1.13,1.07,1.48,2.59,1.78,2.61,0.48,6.17.82,6.17,5C58.72,74.59,55.8,77,52.3,77.62ZM65,74.31a0.74,0.74,0,0,1-.65.79l-2.87.51a0.5,0.5,0,0,1-.65-0.56l0-17.51a0.74,0.74,0,0,1,.65-0.79l2.87-.51a0.5,0.5,0,0,1,.65.56Zm20.82-9.57v5.87a0.74,0.74,0,0,1-.65.79l-2.61.46a0.5,0.5,0,0,1-.65-0.56V69.78a8,8,0,0,1-5.56,3.57c-5.09.91-9-2.66-9-8.21a11.69,11.69,0,0,1,9.5-11.5c4.15-.74,7.68,1.28,8.76,4.53a0.61,0.61,0,0,1-.55.85L82,59.58a0.66,0.66,0,0,1-.76-0.35,4.36,4.36,0,0,0-4.37-1.38,6.35,6.35,0,0,0-5.32,6.55c0,3.64,2.25,5.47,5.34,4.92a5.76,5.76,0,0,0,4.67-3.82l-3.94.7a0.5,0.5,0,0,1-.65-0.56V63.22a0.74,0.74,0,0,1,.65-0.79l7.58-1.35a0.5,0.5,0,0,1,.65.56v3.1Zm16.61,2.92a0.74,0.74,0,0,1-.65.79l-2,.35A0.76,0.76,0,0,1,99,68.51l-6.26-9v9.83a0.74,0.74,0,0,1-.65.79l-2.87.51a0.5,0.5,0,0,1-.65-0.56l0-17.51a0.74,0.74,0,0,1,.65-0.79l2-.35a0.76,0.76,0,0,1,.81.29l6.26,9V50.89a0.74,0.74,0,0,1,.65-0.79l2.87-.51a0.5,0.5,0,0,1,.65.56Z"/>
    <path d="M106.58,0.15L8.85,17.52A11.2,11.2,0,0,0,0,28.23L0,55.9,116.48,35.21l0-26.65C116.43,2.95,112-.82,106.58.15ZM23.19,38.53a5.58,5.58,0,0,0,4.21-3.27,0.9,0.9,0,0,1,.7-0.64L31,34.1a0.42,0.42,0,0,1,.55.57,10.8,10.8,0,0,1-8.39,7.87c-5.26.94-9.08-2.45-9.09-7.75a11.16,11.16,0,0,1,9.06-11c4-.71,7.38,1.26,8.41,4.83a0.63,0.63,0,0,1-.55.82L28.09,30a0.59,0.59,0,0,1-.7-0.39,3.7,3.7,0,0,0-4.22-1.77,6.06,6.06,0,0,0-5.08,6.25C18.1,37.3,20.09,39.08,23.19,38.53Zm18.64,0.7c-5,.89-9.08-2.45-9.09-7.75a11.37,11.37,0,0,1,9.06-11c5-.89,9.08,2.45,9.09,7.75A11.36,11.36,0,0,1,41.83,39.23Zm18.81-3.7-6.23,1.11-0.62.11a0.48,0.48,0,0,1-.62-0.53l0-16.71a0.71,0.71,0,0,1,.62-0.75l3.37-.6,3.49-.62c4.81-.86,8.48,2.4,8.49,7.49A10.67,10.67,0,0,1,60.64,35.52Zm21.21-4.41a0.71,0.71,0,0,1-.62.75l-8.6,1.53L72,33.5A0.48,0.48,0,0,1,71.37,33l0-16.71A0.71,0.71,0,0,1,72,15.51l3.37-.6,5.73-1a0.48,0.48,0,0,1,.62.53v2.67a0.7,0.7,0,0,1-.62.75l-5.73,1v3L80.46,21a0.48,0.48,0,0,1,.62.53v2.57a0.71,0.71,0,0,1-.62.76l-5.11.91v3.21l5.86-1a0.48,0.48,0,0,1,.62.53v2.67Zm20.52-10L97,22v5.51l-3.1.55V22.58l-5.34.95v-3.2l5.34-.95V13.88l3.1-.55v5.51l5.34-.95v3.2Z"/>
    <path d="M41.81,24.52a6.25,6.25,0,0,0-5.08,6.25c0,3.21,2.25,4.95,5.09,4.44A6.25,6.25,0,0,0,46.9,29C46.9,25.75,44.65,24,41.81,24.52Z"/>
    <path d="M60.62,21.48l-3.49.62V32.18l3.49-.62a5.64,5.64,0,0,0,4.63-5.86C65.26,22.61,63.36,21,60.62,21.48Z"/>
  </symbol>
  <symbol id="code-shield" viewBox="0 0 88 64.89"><path class="cls-1" d="M42.52,36.31a3.79,3.79,0,1,1,3.79-3.79A3.79,3.79,0,0,1,42.52,36.31Zm0-6.64a2.85,2.85,0,1,0,2.85,2.85A2.85,2.85,0,0,0,42.52,29.67Z" transform="translate(-6 -17.55)"/><path class="cls-1" d="M56.74,33.18a3.79,3.79,0,1,1,3.79-3.79A3.79,3.79,0,0,1,56.74,33.18Zm0-6.64a2.85,2.85,0,1,0,2.85,2.85A2.85,2.85,0,0,0,56.74,26.54Z" transform="translate(-6 -17.55)"/><path class="cls-1" d="M56.74,68.39a3.79,3.79,0,1,1,3.79-3.79A3.79,3.79,0,0,1,56.74,68.39Zm0-6.64a2.85,2.85,0,1,0,2.85,2.85A2.85,2.85,0,0,0,56.74,61.75Z" transform="translate(-6 -17.55)"/><polygon class="cls-1" points="36.05 23.84 36.99 23.57 36.99 18.29 36.05 18.29 36.05 23.84"/><polygon class="cls-1" points="50.27 19.76 51.21 19.49 51.21 14.69 50.27 14.69 50.27 19.76"/><path class="cls-1" d="M56.74,59.88l.47,0V49.84l-.94.27V59.9Z" transform="translate(-6 -17.55)"/><path class="cls-1" d="M52,64.6c0-.16,0-.32,0-.47H48.78A5.8,5.8,0,0,1,43,58.34V53.92l-.94.27v4.15a6.74,6.74,0,0,0,6.73,6.73H52C52,64.92,52,64.76,52,64.6Z" transform="translate(-6 -17.55)"/><path class="cls-1" d="M94,31l-6.57,1.88v-.94L94,30Zm0,9L82.93,43.1v-.67l-.91.26V44.3l12-3.43ZM11.83,53.47,6,55.15v.94l5.83-1.67Zm4.63,8V62L6,65V66l11-3.16.33-.09V61.23ZM73.89,45l-.88.25.16,1.53a69.09,69.09,0,0,1,.57,6.9c-.78,13.4-11.17,19.4-18,23.36C53,78.61,50.89,79.83,50,81.12c-.89-1.29-3-2.51-5.68-4.06-6-3.46-14.68-8.47-17.31-18.6l-.88.25a24,24,0,0,0,6.21,10.81c3.65,3.77,8,6.29,11.53,8.32,3.18,1.83,5.68,3.28,5.68,4.6h.91c0-1.32,2.51-2.76,5.68-4.6,3.51-2,7.88-4.54,11.53-8.32a23.84,23.84,0,0,0,7-15.78,68.2,68.2,0,0,0-.57-7ZM26.08,23c2,3.3.74,15.34-.07,23l.94-.27c.43-4,.91-8.83,1.05-13.12.16-4.91-.16-8.15-1-9.85.85-.1,2.14-.17,3.4-.25,5.36-.31,14.27-.84,19.6-3.93,5.33,3.1,14.24,3.62,19.6,3.93,1.27.07,2.56.15,3.41.25-.83,1.7-1.16,4.94-1,9.85v.19l.9-.26c-.15-4.42.07-8.24,1.12-9.76l.41-.58c-.47-.34-1.81-.43-4.8-.6-5.35-.31-14.31-.84-19.42-3.94L50,17.55l-.24.14c-5.1,3.1-14.06,3.63-19.42,3.94-3,.17-4.32.27-4.8.6l.52.74Zm60.45,6.63V40.46L81.13,42l-6.49,1.86h0L24.89,58.13h0L12.73,61.62v-1h0V50.78L73.89,33.24ZM85.62,31l-72,20.63v8.8l1.71-.49V57l.87-.25v2.87l1.74-.5V56.27l.87-.25v2.87l1.74-.5V55.52l.87-.25v2.87l1.74-.5V54.77l.87-.25V57.4l1.74-.5V51.67l.87-.25v5.23l1.74-.5V53.27l.87-.25V55.9L31,55.4V52.52l.87-.25v2.88l1.74-.5V51.77l.87-.25V54.4l1.74-.5V51l.87-.25v2.88l1.74-.5V47.92l.87-.25v5.24l1.74-.5V49.53l.87-.25v2.88l1.74-.5V48.78l.87-.25v2.88l1.74-.5V48l.87-.25v2.88l1.74-.5V47.28l.87-.25v2.89l1.74-.5V44.17l.87-.25v5.24l1.74-.5V45.78l.87-.25v2.89l1.74-.5V45l.87-.25v2.89l1.74-.5V44.28l.87-.25v2.89l1.74-.5V43.53l.87-.25v2.89l1.74-.5V40.43l.87-.25v5.25l1.74-.5V42l.87-.25v2.89l1.74-.5V41.28l.87-.25v2.89l1.74-.5V40.54l.87-.25v2.9l1.74-.5v-2.9l.87-.25v2.9l1.74-.5V36.68l.87-.25v5.25l1.74-.5v-2.9l.87-.25v2.9l1.74-.5v-2.9l.87-.25v2.9l1.45-.42Z" transform="translate(-6 -17.55)"/><line class="cls-2" x1="50.74" y1="51.84" x2="50.74" y2="55.32"/></symbol>
  <symbol id="design-shield" viewBox="0 0 88 64.89"><path class="cls-1" d="M94,31l-6.57,1.88v-.94L94,30Zm0,9L82.93,43.1v-.67l-.91.26V44.3l12-3.43ZM11.83,53.47,6,55.15v.94l5.83-1.67Zm4.63,8V62L6,65V66l11-3.16.33-.09V61.23ZM73.89,45l-.88.25.16,1.53a69.09,69.09,0,0,1,.57,6.9c-.78,13.4-11.17,19.4-18,23.36C53,78.61,50.89,79.83,50,81.12c-.89-1.29-3-2.51-5.68-4.06-6-3.46-14.68-8.47-17.31-18.6l-.88.25a24,24,0,0,0,6.21,10.81c3.65,3.77,8,6.29,11.53,8.32,3.18,1.83,5.68,3.28,5.68,4.6h.91c0-1.32,2.51-2.76,5.68-4.6,3.51-2,7.88-4.54,11.53-8.32a23.84,23.84,0,0,0,7-15.78,68.2,68.2,0,0,0-.57-7ZM26.08,23c2,3.3.74,15.34-.07,23l.94-.27c.43-4,.91-8.83,1.05-13.12.16-4.91-.16-8.15-1-9.85.85-.1,2.14-.17,3.4-.25,5.36-.31,14.27-.84,19.6-3.93,5.33,3.1,14.24,3.62,19.6,3.93,1.27.07,2.56.15,3.41.25-.83,1.7-1.16,4.94-1,9.85v.19l.9-.26c-.15-4.42.07-8.24,1.12-9.76l.41-.58c-.47-.34-1.81-.43-4.8-.6-5.35-.31-14.31-.84-19.42-3.94L50,17.55l-.24.14c-5.1,3.1-14.06,3.63-19.42,3.94-3,.17-4.32.27-4.8.6l.52.74Zm60.45,6.63V40.46L81.13,42l-6.49,1.86h0L24.89,58.13h0L12.73,61.62v-1h0V50.78L73.89,33.24ZM85.62,31l-72,20.63v8.8l1.71-.49V57l.87-.25v2.87l1.74-.5V56.27l.87-.25v2.87l1.74-.5V55.52l.87-.25v2.87l1.74-.5V54.77l.87-.25V57.4l1.74-.5V51.67l.87-.25v5.23l1.74-.5V53.27l.87-.25V55.9L31,55.4V52.52l.87-.25v2.88l1.74-.5V51.77l.87-.25V54.4l1.74-.5V51l.87-.25v2.88l1.74-.5V47.92l.87-.25v5.24l1.74-.5V49.53l.87-.25v2.88l1.74-.5V48.78l.87-.25v2.88l1.74-.5V48l.87-.25v2.88l1.74-.5V47.28l.87-.25v2.89l1.74-.5V44.17l.87-.25v5.24l1.74-.5V45.78l.87-.25v2.89l1.74-.5V45l.87-.25v2.89l1.74-.5V44.28l.87-.25v2.89l1.74-.5V43.53l.87-.25v2.89l1.74-.5V40.43l.87-.25v5.25l1.74-.5V42l.87-.25v2.89l1.74-.5V41.28l.87-.25v2.89l1.74-.5V40.54l.87-.25v2.9l1.74-.5v-2.9l.87-.25v2.9l1.74-.5V36.68l.87-.25v5.25l1.74-.5v-2.9l.87-.25v2.9l1.74-.5v-2.9l.87-.25v2.9l1.45-.42ZM53.31,27.68H46.69v-2.9h6.61ZM52.4,25.6H47.6v1.26h4.8ZM49.6,76.36l.4.71.4-.71.73-1.29H48.87Zm3.71-5.22a.39.39,0,0,1-.05.19h0l-1.43,2.51-.22.38H48.39l-.22-.38-1.43-2.51h0a.39.39,0,0,1-.05-.19V52.68l.91-.24V71a1.5,1.5,0,0,0,1,.5,1.38,1.38,0,0,0,1-.5V51.92l.91-.24V71a1.38,1.38,0,0,0,1,.5,1.5,1.5,0,0,0,1-.5V51.17l.91-.24Zm-5.85.31h0Zm.14-31.59V29.3h1.95V39.36l.91-.24V29.3H52.4v9.31l.91-.24v-9.9H46.69V40.1Z" transform="translate(-6 -17.55)"/></symbol>
  <symbol id="github" width="50" height="50" viewBox="0 0 245 245">
    <path class="cls-1" d="M215.79,0H12A12,12,0,0,0,0,12V215.79a12,12,0,0,0,12,12H215.79a12,12,0,0,0,12-12V12A12,12,0,0,0,215.79,0ZM136.06,182c-3.55.68-4.81-1.49-4.81-3.36,0-2.29.09-9.84.09-19.2,0-6.53-2.24-10.8-4.75-13,15.59-1.73,31.95-7.65,31.95-34.53a27,27,0,0,0-7.19-18.78c.72-1.77,3.12-8.88-.7-18.52,0,0-5.86-1.88-19.22,7.17a66.32,66.32,0,0,0-35,0C83,72.79,77.14,74.67,77.14,74.67c-3.81,9.63-1.41,16.75-.69,18.52A27,27,0,0,0,69.25,112c0,26.81,16.33,32.82,31.87,34.58-2,1.75-3.81,4.83-4.44,9.35-4,1.79-14.12,4.88-20.36-5.81,0,0-3.7-6.72-10.72-7.21,0,0-6.83-.09-.48,4.25,0,0,4.59,2.15,7.77,10.24,0,0,4.11,13.61,23.57,9.38,0,5.84.09,10.24.09,11.9,0,1.85-1.28,4-4.78,3.37a70,70,0,1,1,44.28,0Z"/>
  </symbol>
  <symbol id="behance"   width="50" height="50" viewBox="0 0 245 245">
    <path d="M88.38,101.43c2.37-1.73,3.51-4.58,3.51-8.5a11.1,11.1,0,0,0-1.15-5.37,8.51,8.51,0,0,0-3.17-3.25A12.81,12.81,0,0,0,83,82.67a27.67,27.67,0,0,0-5.29-.46H58.5V104H79.32A14.9,14.9,0,0,0,88.38,101.43Z"/>
    <path d="M91.6,121.16c-2.7-2-6.3-3.07-10.73-3.07H58.5v25.74h22a26.42,26.42,0,0,0,5.77-.59,13.65,13.65,0,0,0,4.85-2,9.91,9.91,0,0,0,3.34-3.73,12.94,12.94,0,0,0,1.23-6.06C95.66,126.66,94.3,123.24,91.6,121.16Z"/>
    <path d="M215.79,0H12A12,12,0,0,0,0,12V215.79a12,12,0,0,0,12,12H215.79a12,12,0,0,0,12-12V12A12,12,0,0,0,215.79,0ZM137.12,72.55H175v9.22H137.12Zm-23.65,72.32a23.84,23.84,0,0,1-7.39,8.46,32.53,32.53,0,0,1-10.63,4.85,47.43,47.43,0,0,1-12.21,1.57H37.91V66.28H82a57.5,57.5,0,0,1,12.19,1.19,26.6,26.6,0,0,1,9.44,3.86,18.09,18.09,0,0,1,6.1,7.13,25.12,25.12,0,0,1,2.14,11,20.5,20.5,0,0,1-3.2,11.78,23.25,23.25,0,0,1-9.54,7.71c5.75,1.65,10,4.56,12.84,8.71a26,26,0,0,1,4.23,15A25.89,25.89,0,0,1,113.46,144.87Zm76.3-14.48H140.92c0,5.35,1.81,10.42,4.6,13.13s6.81,4.09,12,4.09a16.59,16.59,0,0,0,9.71-2.84c2.69-1.89,4.33-3.9,5-6h16.37c-2.63,8.15-6.62,14-12.07,17.46s-11.95,5.27-19.6,5.27a39,39,0,0,1-14.44-2.56,30.7,30.7,0,0,1-10.93-7.28,33.29,33.29,0,0,1-6.87-11.28A41.35,41.35,0,0,1,122.26,126a39.72,39.72,0,0,1,2.5-14.16,32.82,32.82,0,0,1,18.06-18.89,35.19,35.19,0,0,1,14.11-2.75,32.05,32.05,0,0,1,15,3.35,30,30,0,0,1,10.55,9,36.72,36.72,0,0,1,5.95,12.85A47.94,47.94,0,0,1,189.76,130.39Z"/>
    <path d="M156.37,104.2a16,16,0,0,0-7.4,1.52,14.93,14.93,0,0,0-4.71,3.73,13.33,13.33,0,0,0-2.49,4.77,21.21,21.21,0,0,0-.85,4.46h30.25A18.1,18.1,0,0,0,166.88,108C164.67,105.52,160.93,104.2,156.37,104.2Z"/>
  </symbol>
</svg>
