<svg xmlns="http://www.w3.org/2000/svg" viewBox="0 0 227.79 227.79"><defs><style>.cls-1{fill:#2b2b2b;fill-rule:evenodd;}</style></defs><title>Asset 2</title>
<g id="Layer_2" data-name="Layer 2"><g id="Layer_1-2" data-name="Layer 1">
  <path d="M88.38,101.43c2.37-1.73,3.51-4.58,3.51-8.5a11.1,11.1,0,0,0-1.15-5.37,8.51,8.51,0,0,0-3.17-3.25A12.81,12.81,0,0,0,83,82.67a27.67,27.67,0,0,0-5.29-.46H58.5V104H79.32A14.9,14.9,0,0,0,88.38,101.43Z"/>
  <path d="M91.6,121.16c-2.7-2-6.3-3.07-10.73-3.07H58.5v25.74h22a26.42,26.42,0,0,0,5.77-.59,13.65,13.65,0,0,0,4.85-2,9.91,9.91,0,0,0,3.34-3.73,12.94,12.94,0,0,0,1.23-6.06C95.66,126.66,94.3,123.24,91.6,121.16Z"/>
  <path d="M215.79,0H12A12,12,0,0,0,0,12V215.79a12,12,0,0,0,12,12H215.79a12,12,0,0,0,12-12V12A12,12,0,0,0,215.79,0ZM137.12,72.55H175v9.22H137.12Zm-23.65,72.32a23.84,23.84,0,0,1-7.39,8.46,32.53,32.53,0,0,1-10.63,4.85,47.43,47.43,0,0,1-12.21,1.57H37.91V66.28H82a57.5,57.5,0,0,1,12.19,1.19,26.6,26.6,0,0,1,9.44,3.86,18.09,18.09,0,0,1,6.1,7.13,25.12,25.12,0,0,1,2.14,11,20.5,20.5,0,0,1-3.2,11.78,23.25,23.25,0,0,1-9.54,7.71c5.75,1.65,10,4.56,12.84,8.71a26,26,0,0,1,4.23,15A25.89,25.89,0,0,1,113.46,144.87Zm76.3-14.48H140.92c0,5.35,1.81,10.42,4.6,13.13s6.81,4.09,12,4.09a16.59,16.59,0,0,0,9.71-2.84c2.69-1.89,4.33-3.9,5-6h16.37c-2.63,8.15-6.62,14-12.07,17.46s-11.95,5.27-19.6,5.27a39,39,0,0,1-14.44-2.56,30.7,30.7,0,0,1-10.93-7.28,33.29,33.29,0,0,1-6.87-11.28A41.35,41.35,0,0,1,122.26,126a39.72,39.72,0,0,1,2.5-14.16,32.82,32.82,0,0,1,18.06-18.89,35.19,35.19,0,0,1,14.11-2.75,32.05,32.05,0,0,1,15,3.35,30,30,0,0,1,10.55,9,36.72,36.72,0,0,1,5.95,12.85A47.94,47.94,0,0,1,189.76,130.39Z"/>
  <path d="M156.37,104.2a16,16,0,0,0-7.4,1.52,14.93,14.93,0,0,0-4.71,3.73,13.33,13.33,0,0,0-2.49,4.77,21.21,21.21,0,0,0-.85,4.46h30.25A18.1,18.1,0,0,0,166.88,108C164.67,105.52,160.93,104.2,156.37,104.2Z"/>
</g></g></svg>
