<svg id="5ff7b1c1-81bf-4e1e-949a-76b95ee61cc5 behance" data-name="Layer 1" xmlns="http://www.w3.org/2000/svg" viewBox="0 0 95 17.58">
  <title>Untitled-1</title>
  <g>
    <path d="M10.64,4.88a10.61,10.61,0,0,1,2.25.22,4.91,4.91,0,0,1,1.74.71,3.34,3.34,0,0,1,1.13,1.32,4.64,4.64,0,0,1,.39,2,3.78,3.78,0,0,1-.59,2.17,4.29,4.29,0,0,1-1.76,1.42,4.12,4.12,0,0,1,2.37,1.61,4.79,4.79,0,0,1,.78,2.77,4.78,4.78,0,0,1-.5,2.26,4.4,4.4,0,0,1-1.36,1.56,6,6,0,0,1-2,.89,8.76,8.76,0,0,1-2.25.29H2.5V4.88h8.14Zm-0.49,7a2.75,2.75,0,0,0,1.67-.48,1.81,1.81,0,0,0,.65-1.57,2,2,0,0,0-.21-1,1.57,1.57,0,0,0-.59-0.6,2.37,2.37,0,0,0-.84-0.3,5.11,5.11,0,0,0-1-.09H6.3v4h3.84Zm0.21,7.35a4.88,4.88,0,0,0,1.07-.11,2.52,2.52,0,0,0,.9-0.37A1.83,1.83,0,0,0,12.93,18a2.39,2.39,0,0,0,.23-1.12,2.25,2.25,0,0,0-.75-1.9,3.2,3.2,0,0,0-2-.57H6.3v4.75h4.05Z" transform="translate(-2.5 -4.88)" fill="#111"/>
    <path d="M22.37,19.14a3.05,3.05,0,0,0,2.22.75,3.06,3.06,0,0,0,1.79-.52,2.21,2.21,0,0,0,.92-1.11h3a5.73,5.73,0,0,1-2.23,3.22,6.49,6.49,0,0,1-3.62,1A7.2,7.2,0,0,1,21.8,22a5.67,5.67,0,0,1-2-1.34,6.15,6.15,0,0,1-1.27-2.08,7.63,7.63,0,0,1-.45-2.66,7.33,7.33,0,0,1,.46-2.61,6.06,6.06,0,0,1,3.33-3.49,6.5,6.5,0,0,1,2.61-.51,5.92,5.92,0,0,1,2.78.62,5.53,5.53,0,0,1,1.95,1.66,6.78,6.78,0,0,1,1.1,2.37,8.85,8.85,0,0,1,.24,2.78h-9A3.5,3.5,0,0,0,22.37,19.14Zm3.94-6.56a2.57,2.57,0,0,0-1.94-.7,3,3,0,0,0-1.37.28,2.76,2.76,0,0,0-.87.69,2.46,2.46,0,0,0-.46.88,3.92,3.92,0,0,0-.16.82H27.1A3.34,3.34,0,0,0,26.31,12.57Z" transform="translate(-2.5 -4.88)" fill="#111"/>
    <path d="M35.41,4.88v6.51h0.08a3.93,3.93,0,0,1,1.66-1.58,4.51,4.51,0,0,1,2-.49,5.82,5.82,0,0,1,2.25.37,3.38,3.38,0,0,1,1.39,1,4.1,4.1,0,0,1,.71,1.62,10.1,10.1,0,0,1,.21,2.11v7.68H40.24V15.08a4.41,4.41,0,0,0-.48-2.31A1.86,1.86,0,0,0,38,12a2.35,2.35,0,0,0-2,.84,4.59,4.59,0,0,0-.63,2.74v6.55H32V4.88h3.45Z" transform="translate(-2.5 -4.88)" fill="#111"/>
    <path d="M46.14,11.47a4,4,0,0,1,1.35-1.28,5.77,5.77,0,0,1,1.85-.69,10.16,10.16,0,0,1,2.07-.21,14.08,14.08,0,0,1,1.91.13,5.81,5.81,0,0,1,1.76.52A3.43,3.43,0,0,1,56.37,11a3,3,0,0,1,.51,1.83v6.51A13.8,13.8,0,0,0,57,21a2.8,2.8,0,0,0,.41,1.16H53.88a1.71,1.71,0,0,1-.23-0.59,5,5,0,0,1-.08-0.62,4.44,4.44,0,0,1-1.93,1.19,7.79,7.79,0,0,1-2.27.34,6.14,6.14,0,0,1-1.66-.22,3.86,3.86,0,0,1-1.35-.68,3.18,3.18,0,0,1-.9-1.16,4,4,0,0,1-.33-1.67A3.61,3.61,0,0,1,45.51,17a3,3,0,0,1,1-1.1,4.21,4.21,0,0,1,1.35-.62,14.43,14.43,0,0,1,1.53-.33c0.52-.08,1-0.14,1.52-0.19a9.13,9.13,0,0,0,1.33-.22,2.35,2.35,0,0,0,.92-0.43,0.94,0.94,0,0,0,.31-0.81,1.86,1.86,0,0,0-.18-0.88,1.35,1.35,0,0,0-.48-0.51,1.92,1.92,0,0,0-.69-0.24,5.92,5.92,0,0,0-.85-0.06,2.57,2.57,0,0,0-1.58.44A2,2,0,0,0,49,13.48H45.53A4,4,0,0,1,46.14,11.47Zm6.75,4.86a6.39,6.39,0,0,1-.69.18l-0.79.12-0.82.12a6.18,6.18,0,0,0-.76.2,2.16,2.16,0,0,0-.65.33,1.58,1.58,0,0,0-.45.52,1.71,1.71,0,0,0-.17.8,1.66,1.66,0,0,0,.17.77,1.28,1.28,0,0,0,.46.49,1.92,1.92,0,0,0,.67.25,4,4,0,0,0,.79.07,3,3,0,0,0,1.57-.34A2.25,2.25,0,0,0,53.05,19a2.5,2.5,0,0,0,.32-1,5.87,5.87,0,0,0,.07-0.78V16A1.49,1.49,0,0,1,52.89,16.33Z" transform="translate(-2.5 -4.88)" fill="#111"/>
    <path d="M62,9.64v1.74h0.08A3.87,3.87,0,0,1,63.8,9.81a4.91,4.91,0,0,1,2.13-.49,5.83,5.83,0,0,1,2.26.37,3.3,3.3,0,0,1,1.39,1,4,4,0,0,1,.72,1.62,9.85,9.85,0,0,1,.21,2.11v7.68H67.05V15.08a4.38,4.38,0,0,0-.48-2.31,1.91,1.91,0,0,0-1.72-.83,2.42,2.42,0,0,0-2,.91,4.61,4.61,0,0,0-.63,2.74v6.55H58.78V9.64H62Z" transform="translate(-2.5 -4.88)" fill="#111"/>
    <path d="M78.14,11.88a2.36,2.36,0,0,0-1.37.37,3,3,0,0,0-.91,1,4.24,4.24,0,0,0-.5,1.31,7.31,7.31,0,0,0-.15,1.42,7,7,0,0,0,.15,1.38,4.44,4.44,0,0,0,.47,1.27,2.78,2.78,0,0,0,.89.93,2.39,2.39,0,0,0,1.35.36A2.53,2.53,0,0,0,80,19.2a3.28,3.28,0,0,0,.83-1.85h3.31a5.7,5.7,0,0,1-1.93,3.8,6.27,6.27,0,0,1-4.09,1.31A6.86,6.86,0,0,1,75.51,22a5.76,5.76,0,0,1-2-1.32,6.12,6.12,0,0,1-1.29-2,7.06,7.06,0,0,1-.46-2.58,8.36,8.36,0,0,1,.42-2.7,6,6,0,0,1,1.25-2.15,5.68,5.68,0,0,1,2-1.42,6.83,6.83,0,0,1,2.71-.51,8.1,8.1,0,0,1,2.14.29,5.63,5.63,0,0,1,1.84.88,4.74,4.74,0,0,1,1.32,1.47A4.81,4.81,0,0,1,84,14H80.67A2.29,2.29,0,0,0,78.14,11.88Z" transform="translate(-2.5 -4.88)" fill="#111"/>
    <rect x="18.31" y="1.16" width="6.99" height="1.7" fill="#111"/>
    <path d="M89.27,19.14a3.16,3.16,0,0,0,2.26.75,3,3,0,0,0,1.79-.52,2.17,2.17,0,0,0,.92-1.11h3A5.74,5.74,0,0,1,95,21.48a6.5,6.5,0,0,1-3.62,1A7.16,7.16,0,0,1,88.75,22a5.64,5.64,0,0,1-2-1.34,6,6,0,0,1-1.27-2.08A7.63,7.63,0,0,1,85,15.89a7.32,7.32,0,0,1,.46-2.61,6.15,6.15,0,0,1,1.31-2.09,6.23,6.23,0,0,1,2-1.39,6.53,6.53,0,0,1,2.61-.51,5.88,5.88,0,0,1,2.77.62,5.49,5.49,0,0,1,1.95,1.66,6.75,6.75,0,0,1,1.1,2.37,9,9,0,0,1,.24,2.78H88.42A3.49,3.49,0,0,0,89.27,19.14Zm4-6.56a2.59,2.59,0,0,0-1.94-.7,3,3,0,0,0-1.37.28,2.83,2.83,0,0,0-.9.69,2.59,2.59,0,0,0-.47.88,4.29,4.29,0,0,0-.15.82h5.63A3.41,3.41,0,0,0,93.26,12.57Z" transform="translate(-2.5 -4.88)" fill="#111"/>
  </g>
</svg>
