<svg id="design-shield" data-name="Layer 1" xmlns="http://www.w3.org/2000/svg" viewBox="0 0 88 64.89"><defs><style>.cls-1{fill:#131313;}</style></defs><title>shield</title><path class="cls-1" d="M94,31l-6.57,1.88v-.94L94,30Zm0,9L82.93,43.1v-.67l-.91.26V44.3l12-3.43ZM11.83,53.47,6,55.15v.94l5.83-1.67Zm4.63,8V62L6,65V66l11-3.16.33-.09V61.23ZM73.89,45l-.88.25.16,1.53a69.09,69.09,0,0,1,.57,6.9c-.78,13.4-11.17,19.4-18,23.36C53,78.61,50.89,79.83,50,81.12c-.89-1.29-3-2.51-5.68-4.06-6-3.46-14.68-8.47-17.31-18.6l-.88.25a24,24,0,0,0,6.21,10.81c3.65,3.77,8,6.29,11.53,8.32,3.18,1.83,5.68,3.28,5.68,4.6h.91c0-1.32,2.51-2.76,5.68-4.6,3.51-2,7.88-4.54,11.53-8.32a23.84,23.84,0,0,0,7-15.78,68.2,68.2,0,0,0-.57-7ZM26.08,23c2,3.3.74,15.34-.07,23l.94-.27c.43-4,.91-8.83,1.05-13.12.16-4.91-.16-8.15-1-9.85.85-.1,2.14-.17,3.4-.25,5.36-.31,14.27-.84,19.6-3.93,5.33,3.1,14.24,3.62,19.6,3.93,1.27.07,2.56.15,3.41.25-.83,1.7-1.16,4.94-1,9.85v.19l.9-.26c-.15-4.42.07-8.24,1.12-9.76l.41-.58c-.47-.34-1.81-.43-4.8-.6-5.35-.31-14.31-.84-19.42-3.94L50,17.55l-.24.14c-5.1,3.1-14.06,3.63-19.42,3.94-3,.17-4.32.27-4.8.6l.52.74Zm60.45,6.63V40.46L81.13,42l-6.49,1.86h0L24.89,58.13h0L12.73,61.62v-1h0V50.78L73.89,33.24ZM85.62,31l-72,20.63v8.8l1.71-.49V57l.87-.25v2.87l1.74-.5V56.27l.87-.25v2.87l1.74-.5V55.52l.87-.25v2.87l1.74-.5V54.77l.87-.25V57.4l1.74-.5V51.67l.87-.25v5.23l1.74-.5V53.27l.87-.25V55.9L31,55.4V52.52l.87-.25v2.88l1.74-.5V51.77l.87-.25V54.4l1.74-.5V51l.87-.25v2.88l1.74-.5V47.92l.87-.25v5.24l1.74-.5V49.53l.87-.25v2.88l1.74-.5V48.78l.87-.25v2.88l1.74-.5V48l.87-.25v2.88l1.74-.5V47.28l.87-.25v2.89l1.74-.5V44.17l.87-.25v5.24l1.74-.5V45.78l.87-.25v2.89l1.74-.5V45l.87-.25v2.89l1.74-.5V44.28l.87-.25v2.89l1.74-.5V43.53l.87-.25v2.89l1.74-.5V40.43l.87-.25v5.25l1.74-.5V42l.87-.25v2.89l1.74-.5V41.28l.87-.25v2.89l1.74-.5V40.54l.87-.25v2.9l1.74-.5v-2.9l.87-.25v2.9l1.74-.5V36.68l.87-.25v5.25l1.74-.5v-2.9l.87-.25v2.9l1.74-.5v-2.9l.87-.25v2.9l1.45-.42ZM53.31,27.68H46.69v-2.9h6.61ZM52.4,25.6H47.6v1.26h4.8ZM49.6,76.36l.4.71.4-.71.73-1.29H48.87Zm3.71-5.22a.39.39,0,0,1-.05.19h0l-1.43,2.51-.22.38H48.39l-.22-.38-1.43-2.51h0a.39.39,0,0,1-.05-.19V52.68l.91-.24V71a1.5,1.5,0,0,0,1,.5,1.38,1.38,0,0,0,1-.5V51.92l.91-.24V71a1.38,1.38,0,0,0,1,.5,1.5,1.5,0,0,0,1-.5V51.17l.91-.24Zm-5.85.31h0Zm.14-31.59V29.3h1.95V39.36l.91-.24V29.3H52.4v9.31l.91-.24v-9.9H46.69V40.1Z" transform="translate(-6 -17.55)"/></svg>
