<?xml version="1.0" encoding="UTF-8" standalone="no"?>
<!DOCTYPE svg PUBLIC "-//W3C//DTD SVG 1.1//EN" "http://www.w3.org/Graphics/SVG/1.1/DTD/svg11.dtd">
<svg width="100%" height="100%" viewBox="0 0 228 228" version="1.1" xmlns="http://www.w3.org/2000/svg" xmlns:xlink="http://www.w3.org/1999/xlink" xml:space="preserve" xmlns:serif="http://www.serif.com/" style="fill-rule:evenodd;clip-rule:evenodd;stroke-linejoin:round;stroke-miterlimit:2;">
    <path d="M215.8,0C222.4,0 227.8,5.4 227.8,12L227.8,215.8C227.8,222.4 222.4,227.8 215.8,227.8L12,227.8C5.4,227.8 0,222.4 0,215.8L0,12C0,5.4 5.4,0 12,0L215.8,0ZM166.582,149.758C161.675,155.973 155.202,160.635 147.164,163.743C139.125,166.851 129.521,168.405 118.352,168.405C106.761,168.405 96.468,166.547 87.471,162.832C78.475,159.116 71.488,153.216 66.51,145.131C61.533,137.046 59.044,128.072 59.044,118.211C59.044,108.07 61.276,98.314 65.739,88.943C70.203,79.573 76.839,72.306 85.649,67.141C94.458,61.977 105.196,59.395 117.861,59.395C132.769,59.395 144.383,63.262 152.702,70.997C161.021,78.732 165.18,88.347 165.18,99.844C165.18,106.247 163.708,112.44 160.764,118.422C157.819,124.404 153.964,129.171 149.197,132.723C145.645,135.433 142.747,136.789 140.504,136.789C139.756,136.789 139.114,136.497 138.576,135.912C138.039,135.328 137.77,134.452 137.77,133.283C137.77,132.349 138.097,130.292 138.751,127.114L149.337,76.851L130.83,76.851L129.077,84.632C125.105,78.276 118.959,75.098 110.64,75.098C98.956,75.098 89.376,80.613 81.898,91.642C75.729,100.709 72.644,110.734 72.644,121.716C72.644,130.596 75.203,137.712 80.321,143.063C85.438,148.414 91.876,151.09 99.634,151.09C106.831,151.09 113.187,148.426 118.702,143.098C119.356,145.715 120.665,147.701 122.628,149.057C124.591,150.412 127.512,151.09 131.391,151.09C145.785,151.09 157.586,145.014 166.793,132.863C174.13,123.235 177.799,112.463 177.799,100.545C177.799,90.544 175.38,81.326 170.543,72.89C165.706,64.454 158.707,57.946 149.547,53.366C140.387,48.786 129.919,46.496 118.141,46.496C104.261,46.496 91.923,49.335 81.127,55.014C70.331,60.692 61.825,69.198 55.609,80.531C49.394,91.864 46.286,104.097 46.286,117.23C46.286,129.194 49.02,140.259 54.488,150.424C59.956,160.589 68.298,168.276 79.515,173.487C90.731,178.698 104.051,181.304 119.473,181.304C135.41,181.304 148.916,178.219 159.993,172.05C169.667,166.676 176.841,159.245 181.514,149.758L166.582,149.758ZM90.801,120.945C90.801,116.505 91.666,111.411 93.395,105.663C95.124,99.914 97.695,95.486 101.106,92.378C104.518,89.271 108.233,87.717 112.253,87.717C115.991,87.717 119.088,89.13 121.541,91.958C123.995,94.785 125.222,98.84 125.222,104.121C125.222,108.841 124.322,113.935 122.523,119.403C120.723,124.871 118.585,129.031 116.108,131.881C114.379,133.891 112.626,135.363 110.851,136.298C108.514,137.606 106.013,138.261 103.35,138.261C99.798,138.261 96.818,136.859 94.411,134.055C92.005,131.25 90.801,126.881 90.801,120.945Z" style="fill:rgb(43,43,43);"/>
</svg>
