<svg id="fae7efdf-ed7d-4529-8ff8-626031b8c2b1 git" data-name="Layer 1" xmlns="http://www.w3.org/2000/svg" viewBox="0 0 64.74 17.51">
  <title>Untitled-1</title>
  <g>
    <path d="M30.1,12.41H24.66a0.25,0.25,0,0,0-.25.25v2.66a0.25,0.25,0,0,0,.25.25h2.12v3.3A6.43,6.43,0,0,1,25,19c-1.55,0-3.73-.57-3.73-5.34s2.26-5.4,4.38-5.4a8.6,8.6,0,0,1,3.13.48,0.26,0.26,0,0,0,.3-0.25L29.69,6a0.24,0.24,0,0,0-.1-0.2c-0.2-.15-1.45-0.84-4.61-0.84-3.63,0-7.36,1.55-7.36,9s4.27,8.54,7.86,8.54a8.85,8.85,0,0,0,4.78-1.27A0.22,0.22,0,0,0,30.35,21v-8.3A0.25,0.25,0,0,0,30.1,12.41Z" transform="translate(-17.63 -4.91)" fill="#111"/>
    <path d="M58.14,5.8a0.25,0.25,0,0,0-.25-0.26H54.82a0.25,0.25,0,0,0-.25.26v5.92H49.79V5.8a0.25,0.25,0,0,0-.25-0.26H46.48a0.25,0.25,0,0,0-.25.26v16a0.26,0.26,0,0,0,.25.26h3.06a0.25,0.25,0,0,0,.25-0.26V15h4.77v6.86a0.26,0.26,0,0,0,.25.26h3.07a0.25,0.25,0,0,0,.25-0.26V5.8Z" transform="translate(-17.63 -4.91)" fill="#111"/>
    <g>
      <ellipse cx="16.27" cy="2.99" rx="1.98" ry="1.99" fill="#111"/>
      <path d="M35.66,18.45v-7.4a0.25,0.25,0,0,0-.25-0.26H32.35a0.29,0.29,0,0,0-.27.28v10.6a0.38,0.38,0,0,0,.45.4h2.75a0.33,0.33,0,0,0,.38-0.41V18.45Z" transform="translate(-17.63 -4.91)" fill="#111"/>
    </g>
    <path d="M69.78,10.82h-3a0.25,0.25,0,0,0-.25.26v7.86a3.43,3.43,0,0,1-1.87.57c-1.1,0-1.39-.5-1.39-1.57V11.08A0.25,0.25,0,0,0,63,10.82H59.89a0.26,0.26,0,0,0-.25.26v7.37c0,3.19,1.78,4,4.22,4a7.12,7.12,0,0,0,3.62-1.11,6.44,6.44,0,0,0,.11.65,0.27,0.27,0,0,0,.22.14h2A0.26,0.26,0,0,0,70,21.84V11.08A0.26,0.26,0,0,0,69.78,10.82Z" transform="translate(-17.63 -4.91)" fill="#111"/>
    <path d="M78.09,10.46a5.72,5.72,0,0,0-2.9.77V5.8a0.25,0.25,0,0,0-.25-0.26H71.86a0.25,0.25,0,0,0-.25.26v16a0.26,0.26,0,0,0,.25.26H74A0.25,0.25,0,0,0,74.21,22a5,5,0,0,0,.13-0.74A5.5,5.5,0,0,0,78,22.4c2.79,0,4.39-1.42,4.39-6.36S79.81,10.46,78.09,10.46Zm-1.2,9A3.64,3.64,0,0,1,75.12,19V13.9a4.05,4.05,0,0,1,1.57-.51c1.09-.1,2.15.23,2.15,2.84S78.36,19.54,76.89,19.49Z" transform="translate(-17.63 -4.91)" fill="#111"/>
    <path d="M44.46,10.79h-2.3v-3A0.16,0.16,0,0,0,42,7.59H38.84a0.16,0.16,0,0,0-.19.17v3.14L37,11.3a0.25,0.25,0,0,0-.18.24v2a0.25,0.25,0,0,0,.25.26h1.61v4.74c0,3.52,2.47,3.87,4.14,3.87a7,7,0,0,0,1.82-.3,0.24,0.24,0,0,0,.14-0.23V19.69a0.26,0.26,0,0,0-.25-0.26c-0.13,0-.48.05-0.83,0.05-1.13,0-1.51-.52-1.51-1.2s0-4.51,0-4.51h2.3a0.25,0.25,0,0,0,.25-0.26V11A0.25,0.25,0,0,0,44.46,10.79Z" transform="translate(-17.63 -4.91)" fill="#111"/>
  </g>
</svg>
