<svg xmlns="http://www.w3.org/2000/svg" viewBox="0 0 227.79 227.79"><defs><style>.cls-1{fill:#2b2b2b;fill-rule:evenodd;}</style></defs><title>Asset 1</title><g id="Layer_2" data-name="Layer 2"><g id="Layer_1-2" data-name="Layer 1"><path class="cls-1" d="M215.79,0H12A12,12,0,0,0,0,12V215.79a12,12,0,0,0,12,12H215.79a12,12,0,0,0,12-12V12A12,12,0,0,0,215.79,0ZM136.06,182c-3.55.68-4.81-1.49-4.81-3.36,0-2.29.09-9.84.09-19.2,0-6.53-2.24-10.8-4.75-13,15.59-1.73,31.95-7.65,31.95-34.53a27,27,0,0,0-7.19-18.78c.72-1.77,3.12-8.88-.7-18.52,0,0-5.86-1.88-19.22,7.17a66.32,66.32,0,0,0-35,0C83,72.79,77.14,74.67,77.14,74.67c-3.81,9.63-1.41,16.75-.69,18.52A27,27,0,0,0,69.25,112c0,26.81,16.33,32.82,31.87,34.58-2,1.75-3.81,4.83-4.44,9.35-4,1.79-14.12,4.88-20.36-5.81,0,0-3.7-6.72-10.72-7.21,0,0-6.83-.09-.48,4.25,0,0,4.59,2.15,7.77,10.24,0,0,4.11,13.61,23.57,9.38,0,5.84.09,10.24.09,11.9,0,1.85-1.28,4-4.78,3.37a70,70,0,1,1,44.28,0Z"/></g></g></svg>
