<?xml version="1.0" encoding="utf-8"?>
<!-- Generator: Adobe Illustrator 21.1.0, SVG Export Plug-In . SVG Version: 6.00 Build 0)  -->
<svg version="1.1" id="Layer_1" xmlns="http://www.w3.org/2000/svg" xmlns:xlink="http://www.w3.org/1999/xlink" x="0px" y="0px"
	 viewBox="0 0 227.8 227.8" style="enable-background:new 0 0 227.8 227.8;" xml:space="preserve">
<style type="text/css">
	.st1{display:inline;}
	.st2{fill:#2B2B2B;}
</style>
<title>Asset 1</title>
<path class="st2" d="M215.8,0H12C5.4,0,0,5.4,0,12v203.8c0,6.6,5.4,12,12,12h203.8c6.6,0,12-5.4,12-12V12C227.8,5.4,222.4,0,215.8,0
	z M168.6,85.2c0.1,1.2,0.1,2.5,0.1,3.7c0,38.1-29,82.1-82.1,82.1c-16.3,0-31.5-4.8-44.2-13c2.3,0.3,4.6,0.4,6.9,0.4
	c13.5,0,26-4.6,35.8-12.4c-12.6-0.2-23.3-8.6-27-20c1.8,0.3,3.6,0.5,5.4,0.5c2.6,0,5.2-0.4,7.6-1C57.9,123,48,111.3,48,97.3
	c0-0.1,0-0.2,0-0.4c3.9,2.2,8.3,3.5,13.1,3.6c-7.7-5.2-12.8-14-12.8-24c0-5.3,1.4-10.2,3.9-14.5C66.4,79.5,87.6,91,111.6,92.2
	c-0.5-2.1-0.7-4.3-0.7-6.6c0-15.9,12.9-28.9,28.9-28.9c8.3,0,15.8,3.5,21.1,9.1c6.6-1.3,12.7-3.7,18.3-7c-2.2,6.7-6.7,12.4-12.7,16
	c5.8-0.7,11.4-2.2,16.6-4.5C179.1,76.1,174.2,81.1,168.6,85.2z"/>
</svg>
