<?xml version="1.0" encoding="utf-8"?>
<!-- Generator: Adobe Illustrator 23.0.2, SVG Export Plug-In . SVG Version: 6.00 Build 0)  -->
<svg version="1.1" id="Layer_1" xmlns="http://www.w3.org/2000/svg" xmlns:xlink="http://www.w3.org/1999/xlink" x="0px" y="0px"
	 viewBox="0 0 217.1 113.4" style="enable-background:new 0 0 217.1 113.4;" xml:space="preserve">
<style type="text/css">
	.st0{fill:none;stroke:#2B2B2B;stroke-width:11;stroke-miterlimit:10;}
	.st1{fill:none;stroke:#D0D0D0;stroke-width:11;stroke-miterlimit:10;}
</style>
<g>
	<path class="st0" d="M0,19.4c13.5,0,13.5,17.4,27.1,17.4c13.5,0,13.5-17.4,27.1-17.4c13.5,0,13.5,17.4,27.1,17.4
		c13.5,0,13.5-17.4,27.1-17.4s13.7,17.4,27.1,17.4s13.5-17.4,27.1-17.4c13.7,0,13.7,17.4,27.1,17.4c13.5,0,13.7-17.4,27.1-17.4"/>
</g>
<g>
	<path class="st1" d="M0,75.5c13.5,0,13.5,17.4,27.1,17.4c13.5,0,13.5-17.4,27.1-17.4c13.5,0,13.5,17.4,27.1,17.4
		c13.5,0,13.5-17.4,27.1-17.4s13.7,17.4,27.1,17.4s13.5-17.4,27.1-17.4c13.7,0,13.7,17.4,27.1,17.4c13.5,0,13.7-17.4,27.1-17.4"/>
</g>
</svg>
