<?xml version="1.0" encoding="utf-8"?>
<!-- Generator: Adobe Illustrator 19.2.1, SVG Export Plug-In . SVG Version: 6.00 Build 0)  -->
<svg version="1.1" id="Layer_1" xmlns="http://www.w3.org/2000/svg" xmlns:xlink="http://www.w3.org/1999/xlink" x="0px" y="0px"
	 viewBox="0 0 676 770" style="enable-background:new 0 0 676 770;" xml:space="preserve">
<style type="text/css">
	.st0{fill:#111111;}
	.st1{fill:#333333;}
	.st2{fill:#FFFFFF;}
	.st3{fill:#B3B3B3;}
	.st4{display:none;}
	.st5{display:inline;fill:#111111;}
	.st6{display:inline;fill:#333333;}
	.st7{display:inline;}
	.st8{display:inline;fill:#B3B3B3;}
	.st9{display:inline;fill:#FFFFFF;}
	.st10{display:inline;fill:#A6120D;}
	.st11{display:inline;fill:#DD1B16;}
	.st12{display:inline;fill:#F2F2F2;}
</style>
<g id="jQuery">
	<path id="Shape_18_" class="st0" d="M85.6,666L29.4,36h617.2l-56.2,629.9L337.6,736L85.6,666z"/>
	<path id="Shape_17_" class="st1" d="M338,682.4l204.2-56.6l48.1-538.3H338V682.4z"/>
	<g id="Q">
		<path class="st2" d="M532,166H144l35.3,396l158.4,44l42.9-11.9l10.4,35.7l56.9-16.7l-10.2-34.9l58.8-16.3L532,166z M439.4,498.3
			l-23.1,6.4l-5.7-19.5l-56.9,16.7l5.5,18.8l-21.3,5.9l-101.3-28.3L214,245h248L439.4,498.3z"/>
		<polygon class="st3" points="337.8,526.5 236.6,498.3 214,245 338,245 338,166 144,166 179.3,562 337.8,606 338,605.9 338,526.5 
					"/>
	</g>
</g>
<g id="HTML5" class="st4">
	<path id="Shape" class="st5" d="M85.6,665L29.4,35h617.2l-56.2,629.9L337.6,735L85.6,665z"/>
	<path id="Shape_1_" class="st6" d="M338,681.4l204.2-56.6l48.1-538.3H338V681.4z"/>
	<g id="_x35_" class="st7">
		<path id="Shape_2_" class="st3" d="M338.2,322.6H236l-7.1-79.1h109.3v-77.3H338H144.5l1.9,20.7l19,212.9h172.9L338.2,322.6
			L338.2,322.6z"/>
		<path id="Shape_3_" class="st3" d="M338.2,523.3l-0.3,0.1l-86.1-23.2l-5.5-61.6h-41.8h-35.8l10.8,121.3l158.3,43.9l0.4-0.1
			L338.2,523.3L338.2,523.3z"/>
		<path id="Shape_8_" class="st2" d="M338,322.6v77.3h95.1l-9,100.2L338,523.4v80.4l158.4-43.9l1.2-13.1l18.2-203.4l1.9-20.7h-20.8
			H338V322.6z"/>
		<path id="Shape_9_" class="st2" d="M338,166.2v48v29.1v0.2h186.4h0.2l1.6-17.4l3.5-39.2l1.8-20.7L338,166.2L338,166.2z"/>
	</g>
</g>
<g id="CSS3" class="st4">
	<path id="Shape_12_" class="st5" d="M85.6,665L29.4,35h617.2l-56.2,629.9L337.6,735L85.6,665z"/>
	<path id="Shape_11_" class="st6" d="M338,681.4l204.2-56.6l48.1-538.3H338V681.4z"/>
	<g id="_x33_" class="st7">
		<path id="Shape_10_" class="st2" d="M337.8,322.6H440l7.1-79.1H337.8v-77.3h0.3h193.5l-1.9,20.7l-19,212.9H337.8V322.6z"/>
		<path id="Shape_4_" class="st3" d="M338.2,523.3l-0.3,0.1l-86.1-23.2l-5.5-61.6h-41.8h-35.7l10.8,121.3l158.3,43.9l0.4-0.1v-80.4
			H338.2z"/>
		<path id="Shape_5_" class="st2" d="M433.4,396.6l-9.3,103.5L338,523.4v80.4l158.4-43.9l1.2-13.1L511,396.6H433.4z"/>
		<path id="Shape_6_" class="st3" d="M338,166.2v48v29.1v0.2H151.6h-0.2l-1.6-17.4l-3.5-39.2l-1.8-20.7L338,166.2L338,166.2z"/>
		<path id="Shape_7_" class="st3" d="M337.8,322.6v48v29.1v0.2H253h-0.2l-1.5-17.4l-3.5-39.2l-1.8-20.7H337.8z"/>
	</g>
</g>
<g id="CSS3_1_" class="st4">
	<path id="Shape_21_" class="st5" d="M85.6,665L29.4,35h617.2l-56.2,629.9L337.6,735L85.6,665z"/>
	<path id="Shape_20_" class="st6" d="M338,681.4l204.2-56.6l48.1-538.3H338V681.4z"/>
	<path class="st8" d="M409.5,427.8l-71.6,33.5h-75.5L227,550l-66,1.2l176.9-393.6L409.5,427.8z M402.6,410.9l-64.2-127.1
		l-52.7,124.9h52.2L402.6,410.9z"/>
	<polygon class="st9" points="337.9,157.6 338.4,283.8 398.2,408.8 338.1,408.8 337.9,461.2 421,461.3 459.9,551.2 523,552.4 	"/>
</g>
<g id="CSS3_2_" class="st4">
	<path id="Shape_14_" class="st5" d="M85.6,665L29.4,35h617.2l-56.2,629.9L337.6,735L85.6,665z"/>
	<path class="st8" d="M487.3,369.5c-14.5,0.1-27,3.5-37.5,8.7c-3.8-7.7-7.7-14.4-8.4-19.4c-0.8-5.9-1.6-9.3-0.7-16.3
		c0.9-7,5-16.9,4.9-17.6c-0.1-0.7-0.9-4.3-9.2-4.4c-8.3-0.1-15.5,1.6-16.3,3.8c-0.8,2.2-2.4,7.2-3.4,12.3
		c-1.5,7.6-16.7,34.6-25.3,48.7c-2.8-5.5-5.2-10.4-5.7-14.2c-0.8-5.9-1.6-9.3-0.7-16.3c0.9-7,5-16.9,4.9-17.6
		c-0.1-0.7-0.9-4.3-9.2-4.4c-8.3-0.1-15.5,1.6-16.3,3.8c-0.8,2.2-1.7,7.4-3.4,12.3c-1.7,5-21.9,50-27.2,61.7c-2.7,5.9-5,10.7-6.7,14
		c0,0,0,0,0,0s-0.1,0.2-0.3,0.6c-1.4,2.8-2.3,4.3-2.3,4.3s0,0,0,0.1c-1.1,2-2.3,3.9-2.9,3.9c-0.4,0-1.3-5.4,0.2-12.9
		c3-15.6,10.2-40,10.2-40.8c0-0.4,1.3-4.7-4.7-6.9c-5.9-2.2-8,1.4-8.5,1.5c-0.5,0-0.9,1.3-0.9,1.3s6.6-27.4-12.5-27.4
		c-11.9,0-28.4,13-36.6,24.9c-5.1,2.8-16.1,8.8-27.8,15.2c-4.5,2.5-9.1,5-13.4,7.4c-0.3-0.3-0.6-0.7-0.9-1
		c-23.1-24.7-65.9-42.1-64.1-75.3c0.7-12.1,4.9-43.8,82.2-82.3c63.3-31.6,114-22.9,122.8-3.6c12.5,27.5-27.1,78.6-92.9,86
		c-25.1,2.8-38.3-6.9-41.5-10.5c-3.5-3.8-4-4-5.3-3.3c-2.1,1.2-0.8,4.5,0,6.5c2,5.1,10,14.2,23.8,18.7c12.1,4,41.5,6.1,77.1-7.6
		c39.8-15.4,71-58.3,61.8-94.1c-9.3-36.4-69.7-48.4-126.9-28.1c-34,12.1-70.9,31.1-97.4,55.9c-31.5,29.5-36.5,55.1-34.5,65.8
		c7.4,38.1,59.8,62.9,80.9,81.3c-1,0.6-2,1.1-2.9,1.6c-10.5,5.2-50.5,26.1-60.6,48.3c-11.4,25.1,1.8,43.1,10.5,45.5
		c27,7.5,54.7-6,69.6-28.2c14.9-22.2,13.1-51.1,6.2-64.3c-0.1-0.2-0.2-0.3-0.3-0.5c2.7-1.6,5.5-3.2,8.2-4.9
		c5.4-3.1,10.6-6.1,15.2-8.6c-2.6,7-4.4,15.4-5.4,27.5c-1.1,14.2,4.7,32.7,12.3,39.9c3.4,3.2,7.4,3.3,10,3.3
		c8.9,0,12.9-7.4,17.4-16.1c5.5-10.7,10.3-23.2,10.3-23.2s-6.1,33.7,10.5,33.7c6.1,0,12.1-7.9,14.9-11.9c0,0,0,0.1,0,0.1
		s0.2-0.3,0.5-0.8c0.6-1,1-1.6,1-1.6s0-0.1,0-0.2c2.4-4.2,7.8-13.9,15.9-29.8c10.5-20.5,20.5-46.2,20.5-46.2s0.9,6.3,4,16.7
		c1.8,6.1,5.6,12.9,8.6,19.4c-2.4,3.4-3.9,5.3-3.9,5.3s0,0,0,0.1c-1.9,2.6-4.1,5.4-6.4,8.1c-8.3,9.8-18.1,21.1-19.4,24.3
		c-1.6,3.8-1.2,6.6,1.8,8.9c2.2,1.7,6.1,1.9,10.2,1.6c7.4-0.5,12.6-2.3,15.2-3.5c4-1.4,8.7-3.7,13.1-6.9c8.1-6,13-14.5,12.5-25.8
		c-0.3-6.2-2.2-12.4-4.8-18.2c0.7-1.1,1.5-2.1,2.2-3.2c12.8-18.7,22.7-39.2,22.7-39.2s0.9,6.3,4,16.7c1.5,5.3,4.6,11,7.3,16.6
		c-12,9.8-19.4,21.1-22,28.5c-4.8,13.8-1,20,6,21.4c3.2,0.6,7.7-0.8,11.1-2.2c4.2-1.4,9.3-3.7,14-7.2c8.1-6,15.9-14.3,15.4-25.6
		c-0.2-5.1-1.6-10.2-3.5-15.1c10.2-4.2,23.4-6.6,40.1-4.6c36,4.2,43.1,26.7,41.7,36.1c-1.4,9.4-8.9,14.6-11.4,16.1
		c-2.5,1.6-3.3,2.1-3.1,3.3c0.3,1.7,1.5,1.6,3.6,1.3c3-0.5,18.9-7.7,19.6-25C545.8,393.5,524.7,369.3,487.3,369.5z M209.8,463.1
		c-11.9,13-28.6,17.9-35.7,13.8c-7.7-4.5-4.7-23.6,10-37.4c8.9-8.4,20.4-16.2,28.1-20.9c1.7-1,4.3-2.6,7.4-4.4
		c0.5-0.3,0.8-0.5,0.8-0.5l0,0c0.6-0.4,1.2-0.7,1.8-1.1C227.5,432.1,222.3,449.4,209.8,463.1z M296.7,404
		c-4.2,10.1-12.8,36-18.1,34.6c-4.5-1.2-7.3-20.9-0.9-40.3c3.2-9.8,10.1-21.4,14.1-25.9c6.5-7.3,13.7-9.7,15.4-6.7
		C309.4,369.5,299.3,397.6,296.7,404z M368.4,438.2c-1.8,0.9-3.4,1.5-4.1,1.1c-0.6-0.3,0.7-1.5,0.7-1.5s9-9.7,12.5-14.1
		c2.1-2.6,4.4-5.6,7-9c0,0.3,0,0.7,0,1C384.6,427.3,373.4,435.1,368.4,438.2z M423.7,425.6c-1.3-0.9-1.1-4,3.2-13.4
		c1.7-3.7,5.6-9.9,12.3-15.9c0.8,2.4,1.3,4.8,1.2,7C440.4,417.9,430,423.4,423.7,425.6z"/>
	<path id="Shape_13_" class="st6" d="M338,681.4l204.2-56.6l48.1-538.3H338V681.4z"/>
	<g class="st7">
		<path class="st2" d="M487.3,369.5c-14.5,0.1-27,3.5-37.5,8.7c-3.8-7.7-7.7-14.4-8.4-19.4c-0.8-5.9-1.6-9.3-0.7-16.3
			c0.9-7,5-16.9,4.9-17.6s-0.9-4.3-9.2-4.4c-8.3-0.1-15.5,1.6-16.3,3.8c-0.8,2.2-2.4,7.2-3.4,12.3c-1.5,7.6-16.7,34.6-25.3,48.7
			c-2.8-5.5-5.2-10.4-5.7-14.2c-0.8-5.9-1.6-9.3-0.7-16.3c0.9-7,5-16.9,4.9-17.6c-0.1-0.7-0.9-4.3-9.2-4.4
			c-8.3-0.1-15.5,1.6-16.3,3.8c-0.8,2.2-1.7,7.4-3.4,12.3c-1.4,4-14.8,34-22.7,51.6v28.3c2.2-4.2,4.8-9.2,7.8-15
			c10.5-20.5,20.5-46.2,20.5-46.2s0.9,6.3,4,16.7c1.8,6.1,5.6,12.9,8.6,19.4c-2.4,3.4-3.9,5.3-3.9,5.3s0,0,0,0.1
			c-1.9,2.6-4.1,5.4-6.4,8.1c-8.3,9.8-18.1,21.1-19.4,24.3c-1.6,3.8-1.2,6.6,1.8,8.9c2.2,1.7,6.1,1.9,10.2,1.6
			c7.4-0.5,12.6-2.3,15.2-3.5c4-1.4,8.7-3.7,13.1-6.9c8.1-6,13-14.5,12.5-25.8c-0.3-6.2-2.2-12.4-4.8-18.2c0.7-1.1,1.5-2.1,2.2-3.2
			c12.8-18.7,22.7-39.2,22.7-39.2s0.9,6.3,4,16.7c1.5,5.3,4.6,11,7.3,16.6c-12,9.8-19.4,21.1-22,28.5c-4.8,13.8-1,20,6,21.4
			c3.2,0.6,7.7-0.8,11.1-2.2c4.2-1.4,9.3-3.7,14-7.2c8.1-6,15.9-14.3,15.4-25.6c-0.2-5.1-1.6-10.2-3.5-15.1
			c10.2-4.2,23.4-6.6,40.1-4.6c36,4.2,43.1,26.7,41.7,36.1c-1.4,9.4-8.9,14.6-11.4,16.1c-2.5,1.6-3.3,2.1-3.1,3.3
			c0.3,1.7,1.5,1.6,3.6,1.3c3-0.5,18.9-7.7,19.6-25C545.8,393.5,524.7,369.3,487.3,369.5z M368.4,438.2c-1.8,0.9-3.4,1.5-4.1,1.1
			c-0.6-0.3,0.7-1.5,0.7-1.5s9-9.7,12.5-14.1c2.1-2.6,4.4-5.6,7-9c0,0.3,0,0.7,0,1C384.6,427.3,373.4,435.1,368.4,438.2z
			 M423.7,425.6c-1.3-0.9-1.1-4,3.2-13.4c1.7-3.7,5.6-9.9,12.3-15.9c0.8,2.4,1.3,4.8,1.2,7C440.4,417.9,430,423.4,423.7,425.6z"/>
		<path class="st2" d="M338,217.3c15.3,2.4,25.7,8.4,29.2,16.2c7.6,16.7-4.1,42.2-29.2,61.2v24.2c35.1-18.1,60.6-56.9,52.2-89.8
			c-5.1-19.9-25.4-32.5-52.2-36.6V217.3z"/>
	</g>
</g>
<g id="CSS3_3_" class="st4">
	<path id="Shape_16_" class="st5" d="M85.6,665L29.4,35h617.2l-56.2,629.9L337.6,735L85.6,665z"/>
	<path class="st8" d="M164.2,514.5v85h21.7v-22.1l19.7,19.7h33.3l-26.4-26.4c0,0,19-0.3,20.4-27.8c0-25.2-19-28.5-41-28.5H164.2z
		 M186.9,537.6h18.7v15.1h-18.7V537.6z M280.7,514.9c-11.9-0.1-28.3,1-28.3,23.4v59.1h22.3v-14.5h21.6V597h22.4v-61.9
		c0-19.4-21.6-20.2-33.2-20.2C284,514.9,282.4,514.9,280.7,514.9z M275,536.2h20.9v23.3H275V536.2z M340.9,514.9h23v81.3h-23V514.9z
		 M388,516v81.3h55.4v-21.6h-32.7v-60.1L388,516z M516.8,515.3v21.9h-37.1v7.9c0,0,7.6,0,15.8,0c8.3,0,25.5-0.4,25.5,25.5
		c0,25.9-11.9,27.3-36,27.3c-24.1,0-29.1,0-29.1,0v-19.8c0,0,23.4,0,33.5,0c10.1,0,10.6-3.3,10.6-6.1c0-2.9-5.2-4.2-15.6-4.2
		s-29.9-5.1-29.9-25.3c0-20.1,10.1-27.7,30.2-27.7C505,514.9,516.8,515.3,516.8,515.3L516.8,515.3z M184.4,490.5h191.4
		c0,0-42.5-96.4-31.7-184.9c10.8-88.5,80.6-128.8,120.2-133.1c39.6-4.3,61.2,20.1,61.2,20.1l8.6-13c0,0-56.9-57.6-128.8-51.1
		c-72,6.5-121.6,54-152.6,111.5s-48.9,97.9-61.2,158.3C179.3,458.8,184.4,490.5,184.4,490.5z M146.2,394l37.4,2.9l-6.5,37.4
		l-35.3-4.3L146.2,394z M205.2,314.9l10.1-28.1l-33.1-13l-10.8,30.2L205.2,314.9z M252,218.4l19.4-23l-25.2-16.6l-20.1,22.3
		L252,218.4z M303.1,129.2l17.3,20.9l23.7-13.7L326.8,117L303.1,129.2z M387.3,105.5l4.3,20.9l29.5-0.7l-2.9-18.7L387.3,105.5z
		 M487.3,127.8l-0.7,13l20.1,10.8l4.3-6.5L487.3,127.8z M483,183.2V194l19.4,2.2v-8.6L483,183.2z M421.1,192.5l9.4,17.3l13.7-10.8
		l-2.9-11.5L421.1,192.5z M391.6,214.8l14.4,21.6l-8.6,15.1l-20.9-23L391.6,214.8z M362.8,274.6l-9.4,18.7l24.5,20.9l5.8-23.7
		L362.8,274.6z M352.8,340.1l-1.4,25.2l30.2,13l-1.4-23.7L352.8,340.1z M361.4,429.3l7.2,25.9l38.1,2.2l-13.7-28.1H361.4z"/>
	<path id="Shape_15_" class="st6" d="M338,681.4l204.2-56.6l48.1-538.3H338V681.4z"/>
	<g class="st7">
		<polygon class="st2" points="351.3,365.3 381.5,378.2 380.1,354.5 352.8,340.1 		"/>
		<polygon class="st2" points="406,236.4 391.6,214.8 376.5,228.5 397.4,251.5 		"/>
		<polygon class="st2" points="406.7,457.4 393.1,429.3 361.4,429.3 368.6,455.2 		"/>
		<polygon class="st2" points="443.4,575.7 410.7,575.7 410.7,515.7 388,516 388,597.3 443.4,597.3 		"/>
		<rect x="340.9" y="514.9" class="st2" width="23" height="81.3"/>
		<polygon class="st2" points="353.5,293.3 377.9,314.2 383.7,290.4 362.8,274.6 		"/>
		<polygon class="st2" points="418.2,106.9 387.3,105.5 391.6,126.3 421.1,125.6 		"/>
		<polygon class="st2" points="338,139.9 344.1,136.4 338,129.5 		"/>
		<path class="st2" d="M405.3,128.5c-25.1,2.3-47.5,9.5-67.3,20.4v341.6h37.8c0,0-42.5-96.4-31.7-184.9s80.6-128.8,120.2-133.1
			c39.6-4.3,61.2,20.1,61.2,20.1l8.6-13C534.1,179.6,477.3,122,405.3,128.5z"/>
		<polygon class="st2" points="487.3,127.8 486.6,140.7 506.8,151.5 511.1,145 		"/>
		<polygon class="st2" points="502.4,187.5 483,183.2 483,194 502.4,196.1 		"/>
		<polygon class="st2" points="441.3,187.5 421.1,192.5 430.5,209.8 444.1,199 		"/>
		<path class="st2" d="M454.6,542.6c0,20.1,19.4,25.3,29.9,25.3s15.6,1.3,15.6,4.2c0,2.9-0.6,6.1-10.6,6.1c-10.1,0-33.5,0-33.5,0
			v19.8c0,0,5,0,29.1,0s36-1.4,36-27.3c0-25.9-17.3-25.5-25.5-25.5c-8.3,0-15.8,0-15.8,0v-7.9h37.1v-21.9l0,0c0,0-11.9-0.4-32-0.4
			S454.6,522.5,454.6,542.6z"/>
	</g>
</g>
<g class="st4">
	<polygon class="st8" points="336.2,344.9 253.6,374 266.6,482.3 336.3,520.6 406.4,481.8 419.5,373.5 	"/>
	<polygon class="st10" points="411.2,379.7 336,354.1 336,511.5 399,476.6 	"/>
	<polygon class="st11" points="262.8,380.2 274,477.1 336,511.5 336,354.1 	"/>
	<path class="st12" d="M356.7,437.9l-20.7,9.7h-21.8L304,473.2l-19.1,0.4L336,359.8L356.7,437.9z M354.7,433l-18.6-36.7L321,432.4
		H336L354.7,433z"/>
	<polygon class="st8" points="336,359.8 336.2,396.3 353.5,432.4 336.1,432.4 336,447.5 360.1,447.5 371.3,473.5 389.5,473.9 	"/>
</g>
</svg>
